<svg width="57" height="70" viewBox="0 0 57 70" fill="none" xmlns="http://www.w3.org/2000/svg">
<g clip-path="url(#clip0_10001_68988)">
<path d="M25.5097 49.8177V44.4668L22.36 43.1599L18.5768 46.9431L15.0542 43.4206L18.8375 39.6373L17.5305 36.4876H12.1797V31.5061H17.5305L18.8375 28.3564L15.0542 24.5732L18.5768 21.0506L22.36 24.8338L25.5097 23.5305V18.1797H30.4913V23.5305L33.6409 24.8338L37.4242 21.0506L40.9467 24.5732L37.1635 28.3564L38.4704 31.5061H43.8213V36.4876H38.4704L37.1635 39.6373L40.9467 43.4206L37.4242 46.9431L33.6409 43.1599L30.4913 44.4668V49.8177H25.5097ZM28.0005 27.7518C24.5539 27.7518 21.7518 30.5539 21.7518 34.0005C21.7518 37.447 24.5539 40.2492 28.0005 40.2492C31.447 40.2492 34.2492 37.447 34.2492 34.0005C34.2492 30.5539 31.447 27.7518 28.0005 27.7518Z" stroke="#FE5B00" stroke-width="1.5" stroke-linecap="round" stroke-linejoin="round"/>
<path d="M28.0901 0.0995121C25.3529 1.46675 22.5942 2.7396 19.6925 3.72929C15.9279 5.01293 12.0231 5.92172 8.07238 6.38825C5.82871 6.65253 3.56886 6.78467 1.30901 6.78737C0.872147 6.78737 0.5 7.15682 0.5 7.59638V10.3578C0.5 12.588 0.5 14.8182 0.5 17.0511V36.8207C0.5 39.8033 0.888327 42.775 1.73779 45.6362C2.90008 49.5465 4.86059 53.1871 7.46022 56.3287C10.0518 59.4596 13.3121 62.0592 16.9392 63.8957C18.5248 64.6993 20.1159 65.4841 21.7043 66.2796C23.7268 67.2909 25.752 68.3022 27.7746 69.3161C28.0685 69.4644 28.3679 69.6505 28.713 69.5561C28.9045 69.5022 29.1014 69.3754 29.2793 69.2891C30.1126 68.8712 30.9459 68.4559 31.7819 68.0379C34.066 66.8945 36.3501 65.7537 38.6343 64.6103C39.1682 64.3434 39.7076 64.0791 40.2388 63.8067C42.0887 62.8548 43.8227 61.7006 45.4381 60.3927C48.5582 57.8605 51.1605 54.6729 53.0293 51.116C54.944 47.4727 56.0928 43.4627 56.411 39.3583C56.5162 37.983 56.4973 36.6023 56.4973 35.2242V7.59638C56.4973 7.15951 56.1278 6.78737 55.6883 6.78737C47.7114 6.77928 39.7399 5.09922 32.4615 1.82541C31.2614 1.28607 30.0857 0.690093 28.9072 0.102209C28.5162 -0.0919547 28.0308 -0.00296305 27.8015 0.393454C27.5912 0.752117 27.6991 1.30494 28.0928 1.49911C30.954 2.92837 33.8449 4.25785 36.876 5.29069C40.7458 6.61208 44.7477 7.50469 48.8063 7.9928C51.0904 8.26786 53.3907 8.4027 55.691 8.4054L54.882 7.59638V36.7425C54.882 39.5174 54.5665 42.1548 53.8114 44.8299C52.757 48.5649 50.9178 52.1192 48.4584 55.1098C45.9208 58.1949 42.8061 60.6947 39.2464 62.4988C37.6823 63.2916 36.1101 64.0683 34.5406 64.8531C32.5154 65.8643 30.4929 66.8783 28.4676 67.8895L28.0955 68.0756H28.9126C27.3593 67.299 25.806 66.5223 24.2527 65.7457C22.2436 64.7398 20.2319 63.7366 18.2228 62.7307C15.3508 61.2934 12.7539 59.5082 10.4832 57.2429C7.73529 54.5031 5.52128 51.1564 4.1136 47.5671C2.78681 44.1881 2.12612 40.6689 2.12342 37.0688C2.12342 36.0009 2.12342 34.933 2.12342 33.8624V7.59638L1.31441 8.4054C9.55287 8.39731 17.7293 6.63635 25.2451 3.27085C26.4856 2.71533 27.6964 2.10317 28.9126 1.49641C29.3036 1.30225 29.4142 0.749421 29.2038 0.390757C28.9719 -0.00835648 28.4892 -0.0946514 28.0982 0.0995121H28.0901Z" fill="#1C294F"/>
<path d="M19.7148 58.9154C14.5317 56.3103 10.3572 51.9201 8.10273 46.5617C6.92157 43.7571 6.27436 40.7287 6.20155 37.6868C6.18806 37.0935 6.19346 36.5003 6.19346 35.907V27.744C6.19346 24.3192 6.19346 20.8971 6.19346 17.4722V13.5863C6.19346 12.9337 6.22582 12.273 6.19346 11.6231C6.19346 11.5934 6.19346 11.5637 6.19346 11.5341L5.38444 12.3431C11.7217 11.9116 17.9889 10.5417 23.9082 8.23868C25.6017 7.58068 27.271 6.84987 28.9025 6.05164H28.0854C33.7863 8.84544 39.8997 10.779 46.1777 11.739C47.9791 12.0141 49.7886 12.219 51.6061 12.3404L50.7971 11.5314V36.271C50.7971 38.1129 50.7081 39.9386 50.3495 41.7535C49.6025 45.5423 47.9683 49.1667 45.5601 52.1924C43.3191 55.0105 40.4957 57.2973 37.2785 58.9127C35.9868 59.5599 34.695 60.2044 33.4033 60.8516C31.7341 61.6876 30.0621 62.5209 28.3928 63.3568C28.2903 63.4081 28.1906 63.4593 28.0881 63.5106H28.9052C26.2166 62.1649 23.5252 60.8219 20.8366 59.4763C20.4618 59.2902 20.0869 59.1014 19.7121 58.9154C19.3372 58.7293 18.8357 58.8102 18.6064 59.2066C18.3961 59.5653 18.504 60.1181 18.8977 60.3123C20.6398 61.1833 22.3818 62.0543 24.1239 62.9254C25.1864 63.4566 26.2489 63.9879 27.3114 64.5191C27.5541 64.6405 27.7941 64.7645 28.0396 64.8832C28.4063 65.0585 28.7218 65.0018 29.0589 64.832C31.0895 63.8153 33.1229 62.8013 35.1535 61.7847C37.381 60.6709 39.6327 59.6219 41.6553 58.1495C45.4657 55.3773 48.4941 51.6127 50.336 47.2709C51.7518 43.9351 52.4179 40.3862 52.4179 36.7672V24.0792C52.4179 21.458 52.4179 18.8395 52.4179 16.2183C52.4179 13.5971 52.4179 13.2384 52.4179 11.7471V11.5341C52.4179 11.0756 52.0457 10.7547 51.6088 10.725C45.3956 10.3017 39.2579 8.91825 33.4573 6.6584C32.028 6.10018 30.6203 5.48533 29.2396 4.81924C29.0077 4.70868 28.7623 4.54688 28.498 4.54688C28.2499 4.54688 28.0288 4.6871 27.813 4.79228C27.4625 4.96217 27.1092 5.12937 26.7532 5.29386C26.0709 5.60938 25.3806 5.91411 24.6848 6.19996C21.794 7.39461 18.8114 8.36812 15.7749 9.11241C12.3662 9.9484 8.89017 10.4904 5.38714 10.7277C4.95027 10.7574 4.57812 11.0756 4.57812 11.5368V35.4135C4.57812 35.9663 4.57812 36.5218 4.57812 37.0747C4.58082 39.9062 5.03657 42.7459 5.95075 45.4264C7.90317 51.1542 11.8377 56.1 17.0019 59.2605C17.6194 59.6381 18.2532 59.9887 18.8977 60.3123C19.2887 60.5091 19.7741 60.4147 20.0033 60.021C20.2137 59.6624 20.1058 59.1122 19.7121 58.9154H19.7148Z" fill="#1C294F"/>
</g>
<defs>
<clipPath id="clip0_10001_68988">
<rect width="56" height="69.578" fill="white" transform="translate(0.5)"/>
</clipPath>
</defs>
</svg>
