<?xml version="1.0" encoding="UTF-8"?>
<svg id="_レイヤー_2" data-name="レイヤー 2" xmlns="http://www.w3.org/2000/svg" width="65.85" height="15.85" viewBox="0 0 65.85 15.85">
  <g id="icon_yt_full.svg" data-name="icon yt full.svg">
    <g>
      <path id="Youtube" d="m28.99,13.48h1.63v-4.82l2.24-6.58h-1.73l-1.31,4.53h-.03l-1.31-4.53h-1.73l2.24,6.58v4.82h0Zm3.92-2.72c0,.31.02.61.07.91.04.26.12.5.23.74.19.35.49.65.84.84.81.42,1.77.42,2.58,0,.35-.2.64-.49.83-.84.12-.23.2-.48.24-.74.04-.3.07-.61.06-.91v-2.67c0-.31-.02-.62-.06-.92-.03-.26-.12-.5-.24-.73-.19-.35-.48-.65-.83-.85-.81-.43-1.78-.43-2.58,0-.35.2-.64.49-.84.85-.12.23-.19.47-.23.73-.05.3-.07.61-.07.92v2.67Zm1.63-2.93c-.02-.25.06-.5.22-.7.33-.31.84-.31,1.17,0,.16.2.24.45.22.7v3.18c.02.25-.06.49-.22.69-.32.32-.84.32-1.17,0-.16-.19-.23-.44-.22-.69v-3.18Zm9.25-2.46h-1.63v5.46c.02.29-.04.58-.18.83-.14.21-.39.32-.64.29-.23.01-.45-.08-.59-.26-.15-.2-.22-.45-.21-.7v-5.62h-1.63v6.22c-.05.54.12,1.08.49,1.48.29.28.66.45,1.06.49h.13c.32.01.64-.07.92-.24.24-.16.45-.38.62-.62h.03v.78h1.63V5.37h0Zm1.59,0h-.82v1.28h.82v4.93c0,.06,0,.13,0,.19s.01.13.02.19c.07.39.26.76.54,1.04.38.34.88.52,1.39.47h.67v-1.53c-.26.02-.53-.02-.78-.12-.19-.17-.28-.43-.23-.68v-4.5h1.01v-1.28h-1.01v-2.46h-1.63v2.46h0Zm8.35,0h-1.63v5.46c.02.29-.04.58-.18.83-.14.21-.39.32-.64.29-.23.01-.45-.08-.59-.26-.15-.2-.22-.45-.21-.7v-5.62h-1.63v6.22c-.05.54.12,1.08.49,1.48.29.28.66.45,1.06.49h.13c.32.01.64-.07.92-.24.24-.16.45-.38.62-.62h.03v.78h1.63V5.37h0Zm1.26,8.11h1.63v-.74s.06.08.1.11c.04.03.07.07.1.11.16.17.35.31.55.42.25.12.53.18.81.17.3,0,.59-.05.86-.18.25-.12.45-.33.57-.58.11-.21.18-.44.21-.67.05-.36.07-.71.06-1.07v-3.09c0-.43,0-.87-.05-1.3-.02-.24-.09-.47-.22-.67-.14-.21-.32-.39-.54-.53-.28-.15-.6-.23-.92-.21-.3,0-.59.07-.86.22-.26.15-.48.36-.65.62h-.03V2.08h-1.63s0,11.39,0,11.39Zm3.25-2.64c.01.28-.05.56-.19.8-.13.2-.37.32-.61.3-.23,0-.45-.1-.59-.28-.16-.21-.24-.47-.22-.73v-3.15c0-.23.07-.46.23-.63.15-.16.36-.25.58-.25.25-.03.49.08.63.29.12.2.17.44.17.67v2.98h0Zm7.62-.8v-2.24c.02-.66-.21-1.3-.65-1.8-.46-.5-1.11-.76-1.78-.73-.45-.01-.89.1-1.29.32-.35.2-.64.49-.84.85-.12.23-.19.47-.23.73-.05.3-.07.61-.07.92v2.67c0,.31.02.61.07.91.04.26.12.5.23.74.19.35.49.65.84.84.39.21.84.32,1.29.31.34,0,.69-.06,1.01-.18.29-.12.55-.29.77-.52.22-.22.38-.48.49-.78.11-.3.17-.63.17-.95h-1.63s0,.07,0,.1c0,.03-.01.07-.02.1-.04.15-.12.29-.22.42-.14.14-.34.21-.54.19-.21.01-.42-.06-.58-.21-.15-.16-.23-.37-.22-.59v-1.1h3.23Zm-3.23-2.21c-.02-.25.06-.5.22-.7.33-.31.84-.31,1.17,0,.16.2.24.45.22.7v.93h-1.6v-.93h0Z" style="fill: #fff; fill-rule: evenodd;"/>
      <path id="youtube" d="m22.07,2.48c-.26-.98-1.02-1.74-1.99-2-1.76-.48-8.81-.48-8.81-.48,0,0-7.05,0-8.81.48C1.49.74.73,1.5.47,2.48-.16,6.08-.16,9.77.47,13.37c.26.98,1.02,1.74,1.99,2,1.76.48,8.81.48,8.81.48,0,0,7.05,0,8.81-.48.98-.26,1.74-1.02,1.99-2,.63-3.6.63-7.29,0-10.89Zm-13.1,8.79v-6.69l5.89,3.34-5.89,3.34Z" style="fill: #fff; fill-rule: evenodd;"/>
    </g>
  </g>
</svg>