<svg width="20" height="25" viewBox="0 0 20 25" fill="none" xmlns="http://www.w3.org/2000/svg">
<g clip-path="url(#clip0_12023_1802)">
<path d="M19.7181 20.1578C19.7209 20.1382 19.7223 20.1186 19.7223 20.099V2.73334C19.7223 2.5009 19.5347 2.31327 19.3022 2.31327H17.4819V0.548976C17.4819 0.316538 17.2943 0.128906 17.0618 0.128906H0.42007C0.187631 0.128906 0 0.316538 0 0.548976V21.5245C0 21.7569 0.187631 21.9445 0.42007 21.9445H2.24037V23.7088C2.24037 23.9413 2.428 24.1289 2.66044 24.1289H16.1097C16.2119 24.1289 16.3057 24.0925 16.3785 24.0323C16.4093 24.0323 16.4415 24.0281 16.4723 24.0211C19.2392 23.3658 19.7013 20.2881 19.7195 20.1578H19.7181ZM2.24037 2.73334V21.1058H0.84014V0.969046H16.6418V2.31327H2.66044C2.428 2.31327 2.24037 2.5009 2.24037 2.73334ZM16.1097 19.7784C15.8772 19.7784 15.6896 19.966 15.6896 20.1985V23.2888H3.08051V3.15341H18.8821V19.7798H16.1097V19.7784ZM16.5298 23.1319V20.6185H18.7449C18.5069 21.3802 17.9104 22.6797 16.5298 23.1319Z" fill="#202F51"/>
<path d="M15.239 10.3789H6.80679C6.57435 10.3789 6.38672 10.5665 6.38672 10.799C6.38672 11.0314 6.57435 11.219 6.80679 11.219H15.239C15.4714 11.219 15.6591 11.0314 15.6591 10.799C15.6591 10.5665 15.4714 10.3789 15.239 10.3789Z" fill="#202F51"/>
<path d="M15.239 14.8711H6.80679C6.57435 14.8711 6.38672 15.0587 6.38672 15.2912C6.38672 15.5236 6.57435 15.7112 6.80679 15.7112H15.239C15.4714 15.7112 15.6591 15.5236 15.6591 15.2912C15.6591 15.0587 15.4714 14.8711 15.239 14.8711Z" fill="#202F51"/>
<path d="M6.80679 8.97295H12.685C12.9174 8.97295 13.105 8.78532 13.105 8.55288C13.105 8.32044 12.9174 8.13281 12.685 8.13281H6.80679C6.57435 8.13281 6.38672 8.32044 6.38672 8.55288C6.38672 8.78532 6.57435 8.97295 6.80679 8.97295Z" fill="#202F51"/>
<path d="M6.82632 13.4651H15.2165C15.449 13.4651 15.6366 13.2775 15.6366 13.0451C15.6366 12.8126 15.449 12.625 15.2165 12.625H6.82632C6.59388 12.625 6.40625 12.8126 6.40625 13.0451C6.40625 13.2775 6.59388 13.4651 6.82632 13.4651Z" fill="#202F51"/>
</g>
<defs>
<clipPath id="clip0_12023_1802">
<rect width="19.7223" height="24" fill="white" transform="translate(0 0.128906)"/>
</clipPath>
</defs>
</svg>
