<svg width="15" height="14" viewBox="0 0 15 14" fill="none" xmlns="http://www.w3.org/2000/svg">
<path d="M1.30525 8.73399C0.776497 7.95341 0.51212 7.56312 0.590352 7.15636C0.668585 6.7496 1.05888 6.48522 1.83946 5.95647L7.02476 2.44401C7.45857 2.15016 7.67548 2.00323 7.92489 1.9772C8.1743 1.95117 8.41686 2.05014 8.902 2.24809L11.1276 3.15618C11.726 3.40035 12.0252 3.52243 12.195 3.7731C12.3648 4.02378 12.3672 4.34692 12.3719 4.9932L12.3897 7.39683C12.3936 7.92078 12.3955 8.18276 12.2788 8.40472C12.1621 8.62668 11.9452 8.77361 11.5114 9.06746L6.32609 12.5799C5.54551 13.1087 5.15522 13.3731 4.74846 13.2948C4.3417 13.2166 4.07732 12.8263 3.54857 12.0457L1.30525 8.73399Z" fill="#1C294F"/>
<ellipse cx="9.05084" cy="5.89682" rx="0.666667" ry="0.666667" transform="rotate(-34.1132 9.05084 5.89682)" fill="white"/>
</svg>
