<svg xmlns="http://www.w3.org/2000/svg" width="108.125" height="108.03" viewBox="0 0 108.125 108.03">
  <defs>
    <style>
      .cls-1 {
        fill: #fff;
        fill-rule: evenodd;
      }
    </style>
  </defs>
  <path id="icon_play.svg" class="cls-1" d="M602.114,3407.93l1.984,0.26,0.71-5.49,1.17,0.15a3.457,3.457,0,0,0,2.879-.74,4.218,4.218,0,0,0,1.217-2.71l0.051-.39a4.325,4.325,0,0,0-.6-3.31,3.645,3.645,0,0,0-2.659-1.27l-2.955-.38Zm3.548-11.84,0.694,0.09a2.261,2.261,0,0,1,1.5.56,1.9,1.9,0,0,1,.328,1.67l-0.118.92a1.872,1.872,0,0,1-.562,1.38,1.721,1.721,0,0,1-1.395.34l-1.071-.14Zm9.177-.11-4.55,13.25,5.9,2.03,0.617-1.8-4.011-1.38,3.933-11.45Zm9.074,19.71,4.575-13.58-1.509-.9-9.823,10.43,1.715,1.03,2.108-2.23,2.2,1.31-0.977,2.91Zm-0.029-5.59-1.818-1.09,3.628-4.02Zm14.614-.17-1.6-1.4-4.941,3.07-0.091-.08,2.351-5.33-1.657-1.45-3.08,7.99-3.924,4.48,1.506,1.32,3.885-4.44Zm-5.885,14.43,0.976,1.74,7.646-4.27,0.049,0.08-4.491,4.92,0.518,0.93,6.541-1.26,0.049,0.09-7.646,4.28,0.977,1.74,12.219-6.83-0.977-1.75-8.017,1.49-0.039-.07,5.39-6.18-0.976-1.75Zm8.718,9.05a3.631,3.631,0,0,0-2.614,1.77,3.8,3.8,0,0,0,1.257,4.75,3.634,3.634,0,0,0,3.146.25l6.419-1.7a3.633,3.633,0,0,0,2.615-1.77,3.8,3.8,0,0,0-1.258-4.75,3.634,3.634,0,0,0-3.146-.25Zm0.988,4.91a1.544,1.544,0,0,1-1.286-.09,1.506,1.506,0,0,1-.663-0.95,1.477,1.477,0,0,1,.111-1.14,1.55,1.55,0,0,1,1.072-.72l7-1.85a1.547,1.547,0,0,1,1.287.09,1.5,1.5,0,0,1,.662.95,1.482,1.482,0,0,1-.11,1.14,1.55,1.55,0,0,1-1.072.72Zm11.8,10.75-0.106-2.1-9.752-1.19,0-.08,9.586-2.1-0.111-2.2-13.832,3.66,0.088,1.76Zm-0.294,3.35-13.928-1.39-0.2,1.99,13.928,1.39Zm-14.315,2.42-1.424,5.83,1.846,0.45,0.949-3.88,4.156,1.01-0.825,3.38,1.748,0.43,0.826-3.38,4,0.98-0.935,3.82,1.846,0.46,1.409-5.77Zm-5.619,14.64-1.2,1.6,4.434,3.32-0.708.94a3.468,3.468,0,0,0-.774,2.87,4.211,4.211,0,0,0,1.757,2.39l0.32,0.24a4.3,4.3,0,0,0,3.173,1.11,3.666,3.666,0,0,0,2.415-1.69l1.787-2.39Zm8.564,8.91-0.42.56a2.273,2.273,0,0,1-1.223,1.03,1.9,1.9,0,0,1-1.62-.53l-0.737-.56a1.841,1.841,0,0,1-.924-1.16,1.731,1.731,0,0,1,.387-1.39l0.648-.86Zm-4.4,8.02-9.314-10.45-4.656,4.15,1.264,1.42,3.164-2.82,8.05,9.03Zm-21.621-1.72,9.618,10.62,1.527-.87-4.31-13.67-1.734,1,0.919,2.93-2.22,1.27-2.065-2.27Zm4.893,2.71,1.839-1.06,1.744,5.13Zm-6.988,12.81,2-.7-0.256-5.81,0.113-.04,3.5,4.66,2.073-.74-5.457-6.59-1.992-5.62-1.884.67,1.971,5.56Zm-9.714-12.13-2-.04-0.14,8.77h-0.1l-2-6.36-1.06-.02-2.2,6.29h-0.1l0.14-8.76-2-.03-0.225,14,2,0.03,2.744-7.68h0.08l2.637,7.77,2,0.03Zm-12.157,3.1a3.645,3.645,0,0,0-.263-3.15,3.833,3.833,0,0,0-4.764-1.23,3.65,3.65,0,0,0-1.75,2.63l-1.657,6.43a3.629,3.629,0,0,0,.264,3.14,3.8,3.8,0,0,0,4.763,1.23,3.636,3.636,0,0,0,1.751-2.63Zm-4.766-1.54a1.55,1.55,0,0,1,.711-1.08,1.65,1.65,0,0,1,2.091.54,1.568,1.568,0,0,1,.1,1.29l-1.807,7.01a1.549,1.549,0,0,1-.711,1.07,1.5,1.5,0,0,1-1.145.12,1.472,1.472,0,0,1-.946-0.66,1.543,1.543,0,0,1-.1-1.28Zm-15.154,5.03,1.881,0.94,5.811-7.92,0.071,0.03-2.854,9.39,1.97,0.98,3.576-13.86-1.576-.78Zm-2.81-1.92,8.064-11.45-1.636-1.15-8.064,11.45Zm4.926-13.67-4.381-4.1-1.3,1.39,2.921,2.73-2.926,3.13-2.541-2.38-1.23,1.31,2.541,2.38-2.817,3.01-2.877-2.69-1.3,1.38,4.337,4.06Zm-9.992-12.03-0.812-1.83-5.063,2.25-0.479-1.08a3.463,3.463,0,0,0-2.126-2.08,4.2,4.2,0,0,0-2.945.37l-0.365.16a4.309,4.309,0,0,0-2.511,2.23,3.616,3.616,0,0,0,.3,2.93l1.209,2.73Zm-11.963,3.12-0.284-.64a2.274,2.274,0,0,1-.3-1.57,1.884,1.884,0,0,1,1.262-1.15l0.841-.38a1.85,1.85,0,0,1,1.47-.23,1.692,1.692,0,0,1,1.019,1.01l0.439,0.99Zm-4.864-7.8,13.683-2.99-1.333-6.1-1.857.41,0.906,4.14-11.826,2.59Zm12.087-17.99-13.954,3.29,0.028,1.76,14.052,2.83-0.032-2-3.011-.61-0.041-2.56,2.99-.71Zm-4.735,2.98,0.034,2.12-5.337-.96Zm-7.765-12.41-0.357,2.09,5.194,2.62-0.02.11-5.774.78-0.371,2.17,8.421-1.54,5.874,1,0.338-1.97-5.816-.99Zm15.4-2.51,0.986-1.74-7.626-4.32,0.05-.08,6.536,1.28,0.523-.92-4.467-4.94,0.049-.09,7.626,4.32,0.986-1.74-12.187-6.9-0.986,1.74,5.429,6.08-0.04.07-8.08-1.4-0.986,1.74Zm3.214-12.15a3.625,3.625,0,0,0,2.871,1.32,3.527,3.527,0,0,0,2.352-1.16,3.476,3.476,0,0,0,1.052-2.39,3.654,3.654,0,0,0-1.431-2.82l-4.792-4.59a3.617,3.617,0,0,0-2.871-1.31,3.8,3.8,0,0,0-3.4,3.55,3.634,3.634,0,0,0,1.431,2.81Zm3.677-3.4a1.559,1.559,0,0,1,.59,1.15,1.653,1.653,0,0,1-1.5,1.56,1.562,1.562,0,0,1-1.171-.54l-5.226-5.01a1.559,1.559,0,0,1-.59-1.15,1.675,1.675,0,0,1,1.5-1.56,1.562,1.562,0,0,1,1.171.54Zm3.011-15.66L571,3402.41l4.071,8.94-0.066.05-6.795-7.08-1.816,1.24,10.336,9.89,1.453-.99Zm3.056-1.52,6.046,12.63,1.8-.87-6.045-12.62Zm9.514,10.97,5.723-1.81-0.573-1.81-3.815,1.21-1.29-4.08,3.319-1.05-0.542-1.72-3.319,1.05-1.242-3.93,3.758-1.19-0.573-1.81-5.665,1.79Z" transform="translate(-546 -3394.06)"/>
</svg>
