<svg width="68" height="53" viewBox="0 0 68 53" fill="none" xmlns="http://www.w3.org/2000/svg">
<path d="M12.0703 26.2488C12.0839 31.0548 14.5672 36.0937 19.1493 38.0523C21.3023 38.9728 23.7427 39.1153 25.9704 38.3712C28.1913 37.6294 30.0504 36.1254 31.4051 34.2347C33.0584 31.9278 33.8635 29.0713 33.8726 26.2488L33.1941 26.9273C34.0671 26.9273 34.0693 25.5703 33.1941 25.5703C32.8254 25.5703 32.5156 25.8802 32.5156 26.2488C32.5088 28.5557 31.9275 30.8264 30.7311 32.7963C29.6546 34.5694 28.1212 36.0236 26.1739 36.8537C26.2667 36.8152 26.1287 36.8717 26.1083 36.8808C26.0541 36.9034 25.9998 36.9238 25.9432 36.9441C25.8324 36.9848 25.7216 37.0255 25.6108 37.0617C25.3416 37.1522 25.068 37.2291 24.7921 37.2924C24.2334 37.4213 23.901 37.4666 23.3378 37.4892C22.2658 37.5321 21.3973 37.4123 20.3683 37.073C19.8504 36.9011 19.5315 36.7632 19.0362 36.4986C18.5861 36.2566 18.1541 35.9784 17.7493 35.6686C17.8375 35.7364 17.6521 35.5917 17.6588 35.5984C17.6023 35.5532 17.548 35.508 17.4915 35.4605C17.3987 35.3836 17.3083 35.3044 17.2178 35.223C17.0188 35.0443 16.8266 34.8589 16.6434 34.6666C16.2634 34.2709 15.9536 33.8977 15.6663 33.4906C14.1623 31.3624 13.4341 28.8384 13.4273 26.2511C13.425 25.3781 12.0681 25.3758 12.0703 26.2511V26.2488Z" fill="#1C294F"/>
<path d="M1.857 51.8817C1.86604 49.844 2.6056 47.8311 3.96259 46.3023C4.8288 45.3275 5.85106 44.6693 7.00902 44.0904C9.27293 42.9573 11.5368 41.8265 13.8007 40.6934C14.529 40.3293 15.2595 39.9651 15.9878 39.5987C16.3157 39.4359 16.4084 38.9723 16.232 38.6715C16.0375 38.3367 15.6327 38.2644 15.3047 38.4272C13.414 39.3726 11.5255 40.3179 9.63479 41.261C8.57182 41.7925 7.50885 42.324 6.44587 42.8555C5.28339 43.4367 4.19554 44.1017 3.27957 45.0425C1.5087 46.8677 0.51132 49.3419 0.500011 51.8817C0.495488 52.7547 1.85247 52.757 1.857 51.8817Z" fill="#1C294F"/>
<path d="M29.7741 39.5982C31.6151 40.5187 33.4538 41.4392 35.2948 42.3574C36.3713 42.8957 37.4479 43.434 38.5244 43.9722C39.515 44.4675 40.4604 44.9855 41.261 45.7431C42.9527 47.3466 43.8958 49.5698 43.9071 51.879C43.9117 52.7519 45.2686 52.7542 45.2641 51.879C45.2528 49.5766 44.4386 47.3602 42.9708 45.5871C42.0345 44.4562 40.8494 43.6217 39.5467 42.9703C37.267 41.8305 34.9895 40.6906 32.7097 39.553C31.9589 39.1776 31.208 38.8021 30.4571 38.4267C30.1292 38.2639 29.7221 38.3385 29.5299 38.671C29.3535 38.9717 29.4439 39.4354 29.7741 39.5982Z" fill="#1C294F"/>
<path d="M16.9794 36.0284C16.3507 37.0076 15.7242 37.9869 15.0955 38.9662C14.9372 39.2127 14.9915 39.5882 15.2018 39.7895C16.0092 40.5539 16.8166 41.3206 17.624 42.085C18.9131 43.3063 20.2 44.5276 21.4892 45.7512C21.7877 46.0339 22.084 46.3166 22.3825 46.5993C22.6562 46.8571 23.0678 46.8548 23.3414 46.5993C24.1647 45.8303 24.9857 45.0636 25.8089 44.2947C27.1139 43.0756 28.4166 41.8566 29.7215 40.6398C30.0246 40.3571 30.3277 40.0744 30.6307 39.7917C30.8478 39.5904 30.8885 39.2195 30.737 38.9685C30.1445 37.9892 29.5542 37.0099 28.9616 36.0306C28.5116 35.2843 27.3378 35.965 27.7901 36.7159C28.3826 37.6952 28.9729 38.6745 29.5655 39.6538L29.6718 38.8305C28.8485 39.5995 28.0276 40.3662 27.2043 41.1351C25.8994 42.3542 24.5967 43.5732 23.2917 44.79C22.9886 45.0727 22.6856 45.3554 22.3825 45.6381H23.3414C22.534 44.8736 21.7266 44.1069 20.9192 43.3425C19.6301 42.1212 18.3432 40.8999 17.0541 39.6764C16.7555 39.3937 16.4593 39.111 16.1607 38.8283L16.267 39.6515C16.8958 38.6722 17.5222 37.6929 18.151 36.7136C18.3477 36.406 18.2143 35.965 17.9067 35.7864C17.5788 35.5941 17.1762 35.7208 16.9794 36.0306V36.0284Z" fill="#1C294F"/>
<path d="M10.5875 18.5556C10.5965 16.1379 11.3881 13.831 12.8876 11.8657C12.9803 11.7458 13.2268 11.4473 13.3874 11.2663C13.6 11.0288 13.8216 10.7982 14.05 10.5765C14.4956 10.1468 14.9389 9.77816 15.3957 9.45248C16.3999 8.74006 17.4832 8.18144 18.5959 7.80148C23.4132 6.15048 28.9452 7.44866 32.3399 11.2663C34.1131 13.2611 35.1308 15.8778 35.1399 18.5556C35.1421 19.4286 36.4991 19.4309 36.4969 18.5556C36.4878 15.905 35.6125 13.295 34.0113 11.1804C32.4101 9.06574 30.1009 7.39439 27.5272 6.50556C24.8562 5.58281 21.8934 5.49234 19.1636 6.21155C16.4338 6.93075 14.1541 8.34201 12.3787 10.3617C10.6033 12.3813 9.50413 14.8872 9.27344 17.5627C9.24404 17.8929 9.23273 18.2231 9.23047 18.5556C9.22821 19.4286 10.5852 19.4309 10.5875 18.5556Z" fill="#1C294F"/>
<path d="M12.8144 40.4825C13.2555 41.4776 13.6987 42.4727 14.1398 43.4679C14.8454 45.0578 15.551 46.6477 16.2589 48.2377C16.4218 48.6063 16.5869 48.975 16.7497 49.3436C16.9035 49.6896 17.383 49.7417 17.677 49.5879C19.2918 48.7465 20.9043 47.9052 22.5191 47.0639C22.7476 46.944 22.976 46.8264 23.2022 46.7065L22.1822 46.1208C22.2138 47.7989 22.2455 49.4771 22.2772 51.1552C22.2817 51.3972 22.2862 51.6392 22.2907 51.8834C22.3066 52.7564 23.6635 52.7587 23.6477 51.8834C23.616 50.2053 23.5844 48.5272 23.5527 46.849C23.5482 46.607 23.5437 46.365 23.5392 46.1208C23.5301 45.5915 22.976 45.2975 22.5191 45.535C20.9043 46.3763 19.2918 47.2177 17.677 48.059C17.4485 48.1789 17.2201 48.2965 16.994 48.4163L17.9212 48.6606C17.4802 47.6655 17.0369 46.6704 16.5959 45.6752C15.8903 44.0853 15.1846 42.4954 14.4767 40.9054C14.3139 40.5368 14.1488 40.1681 13.986 39.7995C13.8367 39.4648 13.3482 39.3856 13.0587 39.5552C12.7127 39.7565 12.6652 40.1478 12.8144 40.4825Z" fill="#1C294F"/>
<path d="M22.5202 46.7076C23.9971 47.4539 25.4739 48.198 26.953 48.9443C27.1656 49.0506 27.3782 49.1592 27.5908 49.2655C27.9233 49.4328 28.3168 49.3492 28.5181 49.0212C29.0858 48.1007 29.6557 47.178 30.2234 46.2575C31.1348 44.7784 32.0485 43.2993 32.96 41.8202C33.168 41.4809 33.3784 41.1417 33.5864 40.8024C34.0456 40.0561 32.8718 39.3753 32.4149 40.1171C31.8472 41.0376 31.2773 41.9604 30.7096 42.8809C29.7982 44.36 28.8845 45.8391 27.973 47.3182C27.765 47.6575 27.5546 47.9967 27.3466 48.3359L28.2738 48.0917C26.797 47.3453 25.3201 46.6013 23.841 45.8549C23.6284 45.7486 23.4158 45.6401 23.2032 45.5338C22.8753 45.3687 22.4682 45.4478 22.276 45.778C22.0996 46.0788 22.19 46.5402 22.5202 46.7053V46.7076Z" fill="#1C294F"/>
<path d="M12.6306 20.1453C14.1753 19.7065 15.7449 18.7295 16.627 17.3725C17.0273 16.7573 17.2399 16.0585 17.2987 15.3325L16.0344 15.674C16.1407 15.9228 16.2945 16.158 16.446 16.3819C16.8825 17.0174 17.4027 17.5941 17.9862 18.0985C20.1416 19.9576 22.9098 20.8441 25.6984 21.1653C28.2473 21.4593 30.8278 21.2603 33.3518 20.8486C33.7137 20.7898 33.915 20.3398 33.8268 20.0141C33.7205 19.6296 33.3541 19.4803 32.9922 19.5391C30.8075 19.8942 28.5775 20.0525 26.3679 19.8716C25.5084 19.8015 24.83 19.7042 23.9343 19.4984C23.2197 19.3333 22.514 19.1207 21.831 18.8493C21.7677 18.8245 21.7066 18.7973 21.6433 18.7724C21.4827 18.7091 21.7767 18.8335 21.6207 18.7634C21.5913 18.7498 21.5596 18.7363 21.5302 18.725C21.3832 18.6594 21.2385 18.5938 21.0937 18.5214C20.8246 18.3902 20.56 18.2477 20.2999 18.094C20.0737 17.9605 19.8543 17.8203 19.6395 17.671C19.5332 17.5987 19.4291 17.5218 19.3274 17.4449C19.2527 17.3883 19.212 17.3544 19.3161 17.4381C19.2595 17.3928 19.203 17.3476 19.1464 17.3024C18.823 17.0378 18.5154 16.7528 18.2305 16.4452C18.1106 16.3186 17.9975 16.1874 17.8867 16.0517C17.8641 16.0223 17.8415 15.9951 17.8166 15.9657C17.803 15.9499 17.7917 15.9341 17.7804 15.9183C17.7239 15.8481 17.7691 15.9522 17.8369 15.9906C17.7895 15.9635 17.7397 15.8617 17.7058 15.8142C17.5203 15.5541 17.3326 15.2782 17.2059 14.9819C17.0906 14.7105 16.7016 14.5975 16.4393 14.6698C16.1362 14.7535 15.9643 15.0249 15.9417 15.3234C15.9394 15.3687 15.9349 15.4139 15.9304 15.4591C15.9417 15.3913 15.9394 15.3958 15.9281 15.4772C15.9123 15.5632 15.8965 15.6491 15.8761 15.7328C15.8354 15.8979 15.7834 16.0585 15.7178 16.2145C15.7721 16.0856 15.668 16.3118 15.6567 16.3344C15.6205 16.4068 15.5798 16.4791 15.5391 16.5493C15.4984 16.6194 15.4532 16.6872 15.4079 16.7528C15.3944 16.7732 15.2451 16.9722 15.3356 16.8568C15.1411 17.1056 14.9172 17.3295 14.6797 17.5353C14.6209 17.5851 14.5621 17.6348 14.501 17.6823C14.44 17.7298 14.44 17.7298 14.501 17.6823C14.4716 17.705 14.44 17.7276 14.4106 17.7502C14.2907 17.8361 14.1686 17.9198 14.0442 17.999C13.8157 18.1437 13.5783 18.2771 13.334 18.3993C13.2277 18.4536 13.1192 18.5033 13.0106 18.5531C12.9608 18.5757 12.9111 18.596 12.8613 18.6187C13.0604 18.5305 12.8953 18.6051 12.85 18.6209C12.66 18.6956 12.4678 18.7702 12.271 18.8267C11.432 19.0642 11.7893 20.376 12.6329 20.1362L12.6306 20.1453Z" fill="#1C294F"/>
<path d="M34.139 27.1984C33.9717 27.1984 34.0734 27.1938 34.0961 27.1984C34.0802 27.1961 33.983 27.1531 34.0531 27.1938C34.0531 27.1938 33.8722 27.0695 33.9558 27.1396C33.9445 27.1305 33.8812 27.0446 33.9242 27.117C33.9355 27.1373 33.8179 26.936 33.8586 27.0084C33.8925 27.0695 33.8382 26.875 33.8473 26.9858C33.845 26.9519 33.845 26.927 33.845 26.8953C33.845 26.789 33.845 26.685 33.845 26.5787V20.6554C33.845 20.3071 33.845 19.9566 33.845 19.6083C33.845 19.5156 33.836 19.5495 33.8654 19.4726C33.8269 19.5744 33.9219 19.3776 33.9219 19.3776C33.8993 19.4138 33.8722 19.4228 33.9536 19.355C33.8699 19.4251 34.0508 19.2984 34.0508 19.3007C33.9671 19.3482 34.1662 19.2871 34.0599 19.2984C34.2838 19.2781 34.4964 19.3075 34.6547 19.3392C34.7791 19.364 34.9035 19.3934 35.0256 19.4319C35.0731 19.4477 35.1228 19.4635 35.1703 19.4794C35.1613 19.4771 35.3762 19.5608 35.2879 19.5224C36.179 19.9068 36.7897 20.6351 37.0271 21.5375C37.1764 22.1097 37.1199 22.8153 37.1199 23.4734C37.1199 24.3442 37.1221 25.0498 36.6879 25.769C36.1496 26.6578 35.1749 27.1938 34.1368 27.2052C33.2638 27.2142 33.2615 28.5712 34.1368 28.5621C35.401 28.5486 36.6449 28.0013 37.4546 27.0174C38.1534 26.1693 38.4769 25.1606 38.4769 24.0683C38.4769 22.9759 38.513 22.7158 38.4701 22.0463C38.3864 20.7482 37.7486 19.5721 36.7083 18.7918C36.2333 18.4368 35.6747 18.1744 35.0934 18.05C34.4602 17.9143 33.7432 17.8487 33.1891 18.249C32.7368 18.577 32.5039 19.0632 32.4903 19.6196C32.4858 19.7598 32.4903 19.9023 32.4903 20.0448C32.4903 21.5397 32.4903 23.0324 32.4903 24.5274V26.6239C32.4903 26.7732 32.4858 26.9202 32.5016 27.0672C32.5875 27.9017 33.2887 28.5644 34.139 28.5644C34.9894 28.5644 35.0143 27.2074 34.139 27.2074V27.1984Z" fill="#1C294F"/>
<path d="M11.7661 28.5571C12.5147 28.5277 13.1773 28.0527 13.365 27.3109C13.4148 27.1119 13.4148 26.9151 13.4148 26.7138V25.0606C13.4148 23.5023 13.4148 21.9417 13.4148 20.3835C13.4148 19.9764 13.4623 19.5082 13.3447 19.1124C12.8833 17.5587 10.9926 17.8436 9.86176 18.3797C8.73094 18.9157 7.8783 19.9764 7.56845 21.1728C7.36716 21.9508 7.42597 22.7808 7.42597 23.5769C7.42597 24.6648 7.52322 25.7096 8.16552 26.6369C8.98876 27.8288 10.3163 28.5412 11.7683 28.5571C12.6413 28.5661 12.6413 27.2091 11.7683 27.2001C10.8953 27.191 9.96127 26.7568 9.42526 26.0715C8.88925 25.3862 8.78521 24.753 8.78521 23.9523C8.78521 23.3937 8.78069 22.8351 8.78521 22.2765C8.79426 21.365 9.2285 20.4694 9.91378 19.9334C10.3209 19.6145 10.6918 19.4562 11.1758 19.3499C11.4019 19.3001 11.5761 19.2866 11.8475 19.2956C11.7593 19.2934 11.8678 19.3069 11.8837 19.3137C11.7819 19.2753 11.9787 19.3725 11.9787 19.3703C11.9085 19.3273 11.9922 19.3906 12.0013 19.4019C11.9199 19.3047 12.0872 19.5512 12.0488 19.4833C12.0148 19.4223 12.0691 19.6168 12.0601 19.506C12.0691 19.6055 12.0601 19.5557 12.0623 19.5828C12.0623 19.5896 12.0623 19.5964 12.0623 19.6009C12.0623 19.6462 12.0623 19.6914 12.0623 19.7389V26.4108C12.0623 26.5645 12.0623 26.7183 12.0623 26.8721C12.0623 26.9626 12.0669 26.9535 12.042 27.0214C12.0759 26.9332 12.0194 27.0666 12.0035 27.087C12.0035 27.087 11.9289 27.1526 11.9787 27.1232C11.9379 27.148 11.8972 27.1707 11.8565 27.1955C11.9063 27.1707 11.8927 27.1729 11.8136 27.2001C11.8724 27.1978 11.8588 27.2001 11.7706 27.2001C11.4042 27.2136 11.0921 27.5009 11.0921 27.8786C11.0921 28.2359 11.4019 28.5706 11.7706 28.5571H11.7661Z" fill="#1C294F"/>
<path d="M34.2763 27.8826C34.2763 28.5136 34.3057 29.1537 34.2718 29.7847C34.2175 30.7775 33.3649 31.6731 32.4037 31.7953C31.8993 31.8586 31.3633 31.8111 30.859 31.8111H26.5189C25.6459 31.8111 25.6436 33.1681 26.5189 33.1681H30.8115C31.3475 33.1681 31.9061 33.2088 32.4421 33.1477C33.8941 32.9781 35.1403 31.9649 35.5157 30.5333C35.7351 29.6942 35.6333 28.7443 35.6333 27.8849C35.6333 27.0255 34.2763 27.0096 34.2763 27.8849V27.8826Z" fill="#1C294F"/>
<path d="M25.8394 32.4895C25.8394 32.5415 25.8349 32.5913 25.8326 32.641C25.8258 32.779 25.8417 32.6162 25.8394 32.6094C25.8575 32.6637 25.801 32.7926 25.7829 32.8491C25.7716 32.8876 25.758 32.9532 25.7354 32.9871C25.7444 32.9758 25.8055 32.8469 25.7444 32.9577C25.6969 33.0414 25.6494 33.1228 25.5974 33.2042C25.516 33.3286 25.672 33.1454 25.6019 33.1974C25.5725 33.22 25.5477 33.2585 25.5228 33.2856C25.4889 33.3195 25.3215 33.5073 25.4459 33.367C25.3984 33.4213 25.3079 33.462 25.2469 33.4982C25.2197 33.514 25.1903 33.5276 25.1609 33.5434C25.0478 33.609 25.2876 33.5095 25.1225 33.5593C25.0433 33.5842 24.9664 33.609 24.8873 33.6249C24.8262 33.6384 24.7651 33.6859 24.8963 33.6271C24.8646 33.6407 24.8058 33.6339 24.7696 33.6362C24.6837 33.6407 24.6 33.6316 24.5163 33.6294C24.4123 33.6249 24.6814 33.6656 24.5231 33.6294C24.4756 33.6181 24.4281 33.609 24.3806 33.5955C24.3332 33.5819 24.2879 33.5661 24.2427 33.5502C24.1681 33.5254 24.2042 33.5661 24.2698 33.5638C24.2155 33.5661 24.107 33.4801 24.0595 33.4485C24.0256 33.4281 23.9939 33.401 23.96 33.3806C23.8786 33.3331 24.0753 33.4892 23.9668 33.3806C23.9215 33.3354 23.779 33.2381 23.7677 33.1771C23.779 33.2359 23.8311 33.2698 23.7858 33.2019C23.7587 33.1612 23.7316 33.1228 23.7067 33.0821C23.6908 33.0549 23.675 33.0278 23.6592 32.9984C23.6366 32.9532 23.5506 32.8559 23.6479 32.9848C23.6049 32.9283 23.5891 32.822 23.5732 32.7541C23.5642 32.7225 23.5597 32.6908 23.5529 32.6569C23.5212 32.5212 23.5597 32.7948 23.5484 32.6139C23.5438 32.537 23.5416 32.4601 23.5484 32.3855L23.5529 32.3357C23.5619 32.2588 23.5597 32.2679 23.5461 32.3674C23.5551 32.3583 23.5619 32.2882 23.5642 32.2701C23.5823 32.191 23.6094 32.1141 23.632 32.0349C23.6818 31.8811 23.5597 32.1593 23.6411 32.0191C23.666 31.9784 23.6863 31.9332 23.7089 31.8924C23.7293 31.8585 23.7519 31.8269 23.7745 31.7929L23.7881 31.7726C23.8311 31.7138 23.8265 31.7206 23.77 31.7975C23.779 31.7522 23.8989 31.6572 23.9328 31.6256C23.9419 31.6188 24.0504 31.508 23.9736 31.5871C23.8967 31.6663 24.0075 31.5645 24.021 31.5555C24.0776 31.517 24.2065 31.4085 24.2721 31.4152C24.2653 31.4152 24.1183 31.4695 24.2449 31.4288C24.2902 31.413 24.3377 31.3971 24.3829 31.3836C24.4146 31.3745 24.4462 31.3677 24.4779 31.3587C24.4892 31.3564 24.6498 31.3248 24.5344 31.3451C24.4191 31.3655 24.5819 31.3429 24.5932 31.3429C24.6362 31.3406 24.6792 31.3406 24.7199 31.3406C24.7606 31.3406 24.8036 31.3451 24.8465 31.3474C25.0003 31.3519 24.7289 31.3157 24.8646 31.3496C24.9596 31.3745 25.0524 31.3994 25.1473 31.4288C25.2921 31.474 25.0682 31.37 25.1406 31.4265C25.1835 31.4582 25.2423 31.4786 25.2876 31.5057C25.3147 31.5215 25.3418 31.5396 25.369 31.5577C25.3961 31.5758 25.421 31.5939 25.4459 31.612C25.3712 31.5532 25.3622 31.5487 25.4187 31.5962C25.4753 31.6527 25.5318 31.7093 25.5861 31.7635C25.6992 31.8766 25.5115 31.6414 25.5974 31.7748C25.6246 31.8155 25.6517 31.854 25.6766 31.8947C25.7014 31.9354 25.7218 31.9784 25.7444 32.0214C25.8123 32.139 25.7082 31.897 25.7535 32.0372C25.7829 32.1322 25.8077 32.2249 25.8326 32.3199C25.8462 32.3764 25.8779 32.3968 25.8326 32.2882C25.8552 32.3403 25.8439 32.4352 25.8439 32.4918C25.8485 32.8469 26.1515 33.1861 26.5224 33.1703C26.8933 33.1544 27.2054 32.8717 27.2009 32.4918C27.1873 31.4243 26.5247 30.5061 25.5296 30.1306C24.591 29.7755 23.4308 30.0854 22.7952 30.8611C22.1213 31.6821 21.9856 32.8446 22.5397 33.7696C23.0938 34.6946 24.1545 35.1311 25.2016 34.9434C26.3641 34.7353 27.1851 33.643 27.2009 32.4918C27.2054 32.1367 26.8843 31.7975 26.5224 31.8133C26.1606 31.8291 25.8485 32.1118 25.8439 32.4918L25.8394 32.4895Z" fill="#1C294F"/>
<path d="M37.3625 6.89213C39.1085 4.94485 41.2932 3.38884 43.7358 2.45252C46.1784 1.5162 48.915 1.16113 51.5724 1.45062C53.7775 1.69261 56.0346 2.45026 57.9842 3.59013C58.9929 4.18042 59.8387 4.79785 60.6846 5.56002C61.5304 6.3222 62.3062 7.1771 62.91 7.99581C65.6986 11.7818 66.7639 16.6149 65.8117 21.1631C65.3345 23.4451 64.4389 25.4851 63.0842 27.3917C61.8199 29.1716 60.1011 30.7593 58.2103 31.9037C56.3196 33.048 54.0173 33.8781 51.8076 34.1495C48.9896 34.4955 46.1264 34.1359 43.4916 33.0774C42.8334 32.8128 42.1956 32.4939 41.5782 32.1456C40.816 31.7159 40.1308 32.8875 40.8929 33.3172C45.9183 36.151 52.1039 36.3727 57.317 33.9188C61.7385 31.8381 65.1649 27.8983 66.6621 23.2529C68.1593 18.6074 67.5984 13.0664 65.0247 8.73085C62.5278 4.52419 58.2963 1.43705 53.5084 0.401213C47.9696 -0.797459 42.1097 0.726889 37.8623 4.4767C37.3467 4.93129 36.8627 5.41754 36.4036 5.92867C36.1593 6.20233 36.1344 6.61847 36.4036 6.88761C36.6524 7.13639 37.1183 7.16127 37.3625 6.88761V6.89213Z" fill="#1C294F"/>
<path d="M48.4445 27.8831V24.5388L46.476 23.722L44.1115 26.0865L41.9099 23.8849L44.2744 21.5204L43.4576 19.5518H40.1133V16.4384H43.4576L44.2744 14.4698L41.9099 12.1053L44.1115 9.9037L46.476 12.2682L48.4445 11.4536V8.10938H51.558V11.4536L53.5266 12.2682L55.8911 9.9037L58.0927 12.1053L55.7282 14.4698L56.545 16.4384H59.8893V19.5518H56.545L55.7282 21.5204L58.0927 23.8849L55.8911 26.0865L53.5266 23.722L51.558 24.5388V27.8831H48.4445ZM50.0013 14.092C47.8472 14.092 46.0959 15.8433 46.0959 17.9974C46.0959 20.1515 47.8472 21.9028 50.0013 21.9028C52.1554 21.9028 53.9067 20.1515 53.9067 17.9974C53.9067 15.8433 52.1554 14.092 50.0013 14.092Z" stroke="#FE5B00" stroke-linecap="round" stroke-linejoin="round"/>
</svg>
