<svg xmlns="http://www.w3.org/2000/svg" width="24" height="16.88" viewBox="0 0 24 16.88">
  <defs>
    <style>
      .cls-1 {
        fill: #fff;
        fill-rule: evenodd;
      }
    </style>
  </defs>
  <path id="youtube" class="cls-1" d="M191.5,3934.2a2.993,2.993,0,0,0-2.122-2.13c-1.871-.51-9.377-0.51-9.377-0.51s-7.506,0-9.377.51a2.993,2.993,0,0,0-2.122,2.13,33.757,33.757,0,0,0,0,11.6,2.993,2.993,0,0,0,2.122,2.13c1.871,0.51,9.377.51,9.377,0.51s7.506,0,9.377-.51a2.993,2.993,0,0,0,2.122-2.13A33.757,33.757,0,0,0,191.5,3934.2Zm-13.954,9.36v-7.12l6.273,3.56Z" transform="translate(-168 -3931.56)"/>
</svg>
