<svg width="25" height="25" viewBox="0 0 25 25" fill="none" xmlns="http://www.w3.org/2000/svg">
<path fill-rule="evenodd" clip-rule="evenodd" d="M5 4.8241e-06L4.93417 2.43991e-06C4.04769 -4.73896e-05 3.28387 -9.01857e-05 2.67221 0.0821453C2.0167 0.170277 1.38835 0.369022 0.878684 0.878684C0.369022 1.38835 0.170277 2.0167 0.0821453 2.67221C-9.01857e-05 3.28387 -4.73896e-05 4.04769 2.43991e-06 4.93417L4.8241e-06 5V11.1177L2.43991e-06 11.1835C-4.73896e-05 12.07 -9.01857e-05 12.8338 0.0821453 13.4454C0.170277 14.101 0.369022 14.7293 0.878684 15.239C1.38835 15.7486 2.0167 15.9474 2.67221 16.0355C3.28387 16.1177 4.04769 16.1177 4.93417 16.1177L5.00001 16.1176H5.2353V14.1177H5.00001C4.02893 14.1177 3.40122 14.1155 2.93871 14.0533C2.50497 13.995 2.36902 13.9009 2.2929 13.8248C2.21677 13.7486 2.12263 13.6127 2.06431 13.1789C2.00213 12.7164 2 12.0887 2 11.1177V5C2 4.02893 2.00213 3.40121 2.06431 2.93871C2.12263 2.50497 2.21677 2.36902 2.2929 2.2929C2.36902 2.21677 2.50497 2.12263 2.93871 2.06431C3.40121 2.00213 4.02893 2 5 2H11.1177C12.0887 2 12.7164 2.00213 13.1789 2.06431C13.6127 2.12263 13.7486 2.21677 13.8248 2.2929C13.9009 2.36902 13.995 2.50497 14.0533 2.93871C14.1155 3.40122 14.1177 4.02893 14.1177 5.00001V5.2353H16.1176V5.00001L16.1177 4.93417C16.1177 4.04769 16.1177 3.28387 16.0355 2.67221C15.9474 2.0167 15.7486 1.38835 15.239 0.878684C14.7293 0.369022 14.101 0.170277 13.4454 0.0821453C12.8338 -9.01857e-05 12.07 -4.73896e-05 11.1835 2.43991e-06L11.1177 4.8241e-06H5ZM13.4706 8.47059L13.4048 8.47059C12.5183 8.47054 11.7545 8.4705 11.1428 8.55273C10.4873 8.64087 9.85893 8.83961 9.34927 9.34927C8.83961 9.85893 8.64087 10.4873 8.55273 11.1428C8.4705 11.7545 8.47054 12.5183 8.47059 13.4048L8.47059 13.4706V19.5882L8.47059 19.6541C8.47054 20.5406 8.4705 21.3044 8.55273 21.916C8.64087 22.5715 8.83961 23.1999 9.34927 23.7096C9.85893 24.2192 10.4873 24.418 11.1428 24.5061C11.7545 24.5883 12.5183 24.5883 13.4048 24.5882L13.4706 24.5882H19.5882L19.6541 24.5882C20.5406 24.5883 21.3044 24.5883 21.916 24.5061C22.5715 24.418 23.1999 24.2192 23.7096 23.7096C24.2192 23.1999 24.418 22.5715 24.5061 21.916C24.5883 21.3044 24.5883 20.5406 24.5882 19.6541L24.5882 19.5882V13.4706L24.5882 13.4048C24.5883 12.5183 24.5883 11.7545 24.5061 11.1428C24.418 10.4873 24.2192 9.85893 23.7096 9.34927C23.1999 8.83961 22.5715 8.64087 21.916 8.55273C21.3044 8.4705 20.5406 8.47054 19.6541 8.47059L19.5882 8.47059H13.4706ZM10.7635 10.7635C10.8396 10.6874 10.9756 10.5932 11.4093 10.5349C11.8718 10.4727 12.4995 10.4706 13.4706 10.4706H19.5882C20.5593 10.4706 21.187 10.4727 21.6495 10.5349C22.0833 10.5932 22.2192 10.6874 22.2953 10.7635C22.3715 10.8396 22.4656 10.9756 22.5239 11.4093C22.5861 11.8718 22.5882 12.4995 22.5882 13.4706V19.5882C22.5882 20.5593 22.5861 21.187 22.5239 21.6495C22.4656 22.0833 22.3715 22.2192 22.2953 22.2953C22.2192 22.3715 22.0833 22.4656 21.6495 22.5239C21.187 22.5861 20.5593 22.5882 19.5882 22.5882H13.4706C12.4995 22.5882 11.8718 22.5861 11.4093 22.5239C10.9756 22.4656 10.8396 22.3715 10.7635 22.2953C10.6874 22.2192 10.5932 22.0833 10.5349 21.6495C10.4727 21.187 10.4706 20.5593 10.4706 19.5882V13.4706C10.4706 12.4995 10.4727 11.8718 10.5349 11.4093C10.5932 10.9756 10.6874 10.8396 10.7635 10.7635Z" fill="#1C294F"/>
</svg>
