<svg width="18" height="22" viewBox="0 0 18 22" fill="none" xmlns="http://www.w3.org/2000/svg">
<path d="M11.2655 14.0391H3.13281V14.8167H11.2655V14.0391Z" fill="white"/>
<path d="M11.2655 10.8828H3.13281V11.6579H11.2655V10.8828Z" fill="white"/>
<path d="M11.2655 7.73438H3.13281V8.51205H11.2655V7.73438Z" fill="white"/>
<path d="M11.2651 4.58594H7.43359V5.36361H11.2651V4.58594Z" fill="white"/>
<path d="M14.4014 16.5755V1.65735C14.4014 1.56137 14.3931 1.46477 14.3766 1.37419C14.2419 0.593673 13.5602 0 12.7415 0H6.01605C5.53237 0 5.07061 0.192578 4.72993 0.533301L0.533301 4.72704C0.192285 5.07094 0 5.53237 0 6.01639V16.5755C0 17.4876 0.744957 18.2325 1.66023 18.2325H12.7415C13.6565 18.2325 14.4014 17.4876 14.4014 16.5755ZM5.42815 1.15174V4.87837C5.42815 5.2826 5.27147 5.43895 4.87008 5.43895H1.1435L5.42815 1.15174ZM0.931844 16.5755V6.2662H5.36745C5.51329 6.2662 5.6506 6.23064 5.77139 6.16738C5.94204 6.0822 6.07935 5.94464 6.16165 5.77712C6.2252 5.65604 6.25796 5.52128 6.25796 5.37858V0.931803H12.7415C13.0409 0.931803 13.2992 1.11296 13.4092 1.37419C13.4477 1.46222 13.4667 1.55564 13.4667 1.65735V16.5755C13.4667 16.9737 13.1426 17.301 12.7415 17.301H1.66028C1.25889 17.301 0.931844 16.9737 0.931844 16.5755Z" fill="white"/>
<path d="M16.3427 3.1875H15.2243L15.2819 4.1193H16.3427C16.7441 4.1193 17.0685 4.44346 17.0685 4.84485V19.7629C17.0685 20.1612 16.7441 20.4885 16.3427 20.4885H5.25891C4.95923 20.4885 4.70084 20.3041 4.59085 20.0458C4.55529 19.9581 4.53337 19.8646 4.53337 19.7629V19.1144H3.60156V19.763C3.60156 19.8589 3.60985 19.955 3.62637 20.0458C3.76109 20.8235 4.44283 21.42 5.25895 21.42H16.3428C17.258 21.42 18.0004 20.6751 18.0004 19.763V4.84489C18.0004 3.92961 17.258 3.1875 16.3427 3.1875Z" fill="white"/>
</svg>
