<svg width="41" height="41" viewBox="0 0 41 41" fill="none" xmlns="http://www.w3.org/2000/svg">
<path fill-rule="evenodd" clip-rule="evenodd" d="M7.02907 7.02584C14.3524 -0.297447 26.2258 -0.297447 33.5491 7.02584C40.8723 14.3491 40.8723 26.2225 33.5491 33.5458C26.2258 40.8691 14.3524 40.8691 7.02907 33.5458C-0.294223 26.2225 -0.294223 14.3491 7.02907 7.02584ZM34.6097 5.96518C26.7006 -1.94389 13.8775 -1.94389 5.96841 5.96518C-1.94067 13.8743 -1.94067 26.6974 5.96841 34.6065C13.8775 42.5156 26.7006 42.5156 34.6097 34.6065C42.5188 26.6974 42.5188 13.8743 34.6097 5.96518ZM19 10.9996L19 19.3867H11V21.3867H19V29.3867H21V21.3867L29.3871 21.3867L29.3871 19.3867H21L21 10.9996H19Z" fill="#1C294F"/>
</svg>
