<svg width="57" height="57" viewBox="0 0 57 57" fill="none" xmlns="http://www.w3.org/2000/svg">
<g clip-path="url(#clip0_10001_69066)">
<path d="M48.3258 11.8549C46.7284 11.8549 45.1332 11.8549 43.5358 11.8549C40.1358 11.8549 36.7335 11.8549 33.3335 11.8549C30.1409 11.8549 26.946 11.8549 23.7534 11.8549H21.1477C21.0043 11.8549 20.8609 11.8549 20.7174 11.8549C19.7444 11.8482 18.8619 11.4533 18.1978 10.7031C17.8558 10.3148 17.6043 9.81175 17.4785 9.27119C17.4123 8.98215 17.3991 8.71959 17.3991 8.38864V6.07636C17.3991 5.45416 17.3461 4.79887 17.4255 4.17887C17.5557 3.16174 18.2309 2.20196 19.1862 1.6967C19.6805 1.43414 20.2232 1.32824 20.8057 1.32603C21.0308 1.32603 21.2558 1.32603 21.4809 1.32603H24.5102C27.7999 1.32603 31.0896 1.32603 34.3815 1.32603C37.6734 1.32603 41.0139 1.32603 44.3279 1.32603H47.4322C48.2221 1.32603 48.8907 1.28632 49.6121 1.57976C49.7313 1.6283 50.0424 1.7982 50.2211 1.91955C50.3998 2.0409 50.6447 2.25712 50.8389 2.47997C51.1809 2.86829 51.4324 3.37134 51.5582 3.9119C51.6266 4.20535 51.6376 4.48115 51.6376 4.81872V5.816C51.6376 6.61692 51.6376 7.41783 51.6376 8.22095C51.6376 9.02407 51.514 9.77203 51.0044 10.5001C50.4153 11.3386 49.3716 11.846 48.328 11.8571C47.4764 11.8659 47.4742 13.1897 48.328 13.1809C49.6761 13.1676 51.0088 12.5807 51.8693 11.5305C52.5952 10.6436 52.9614 9.58449 52.9614 8.44159C52.9614 7.68039 52.9614 6.91919 52.9614 6.15799C52.9614 5.52917 53.0033 4.88271 52.9438 4.2561C52.7121 1.85115 50.7087 0.0088255 48.2927 0C47.7036 0 47.1145 0 46.5254 0H31.9678C30.238 0 28.5082 0 26.7784 0C25.4457 0 24.1153 0 22.7826 0C22.1207 0 21.4588 0 20.7969 0C18.6788 0.00220637 16.746 1.39884 16.2209 3.48607C16.0399 4.20756 16.0774 4.95331 16.0774 5.68803V8.20109C16.0774 9.16307 16.2297 10.0853 16.7349 10.9238C17.4211 12.0623 18.6104 12.9007 19.9276 13.1081C20.5674 13.2074 21.2205 13.1787 21.8648 13.1787C23.0055 13.1787 24.1462 13.1787 25.2868 13.1787C26.9152 13.1787 28.5435 13.1787 30.1718 13.1787C32.0163 13.1787 33.8586 13.1787 35.7031 13.1787C37.5477 13.1787 39.2753 13.1787 41.0602 13.1787H48.3258C49.1775 13.1787 49.1797 11.8549 48.3258 11.8549Z" fill="#1C294F"/>
<path d="M45.1855 7.10007C45.276 7.10448 45.362 7.08463 45.4415 7.04271C45.5231 7.01623 45.5937 6.9699 45.6555 6.90591C45.7195 6.84634 45.7658 6.77574 45.7923 6.69189C45.8342 6.61246 45.8519 6.52862 45.8497 6.43595L45.8254 6.25944C45.7945 6.14692 45.7371 6.04984 45.6555 5.9682L45.5209 5.8645C45.4172 5.80493 45.3069 5.77404 45.1877 5.77404C45.0973 5.76963 45.0112 5.78949 44.9318 5.83141C44.8502 5.85788 44.7796 5.90422 44.7178 5.9682C44.6538 6.02777 44.6075 6.09838 44.581 6.18222C44.5391 6.26165 44.5214 6.34549 44.5236 6.43816L44.5479 6.61467C44.5788 6.72719 44.6361 6.82428 44.7178 6.90591L44.8524 7.00961C44.9561 7.06918 45.0664 7.10007 45.1855 7.10007Z" fill="#1C294F"/>
<path d="M30.9691 51.6406H13.1747C12.3231 51.6406 12.3209 52.9644 13.1747 52.9644H30.9691C31.8208 52.9644 31.823 51.6406 30.9691 51.6406Z" fill="#1C294F"/>
<path d="M55.8637 51.6406H38.0693C37.2176 51.6406 37.2154 52.9644 38.0693 52.9644H55.8637C56.7153 52.9644 56.7175 51.6406 55.8637 51.6406Z" fill="#1C294F"/>
<path d="M41.6287 7.10507C42.4803 7.10507 42.4825 5.78125 41.6287 5.78125C40.7748 5.78125 40.7748 7.10507 41.6287 7.10507Z" fill="#1C294F"/>
<path d="M38.0762 7.10007C38.1666 7.10448 38.2527 7.08463 38.3321 7.04271C38.4137 7.01623 38.4843 6.9699 38.5461 6.90591C38.6101 6.84634 38.6564 6.77574 38.6829 6.69189C38.7248 6.61246 38.7425 6.52862 38.7403 6.43595L38.716 6.25944C38.6851 6.14692 38.6277 6.04984 38.5461 5.9682L38.4115 5.8645C38.3078 5.80493 38.1975 5.77404 38.0784 5.77404C37.9879 5.76963 37.9019 5.78949 37.8224 5.83141C37.7408 5.85788 37.6702 5.90422 37.6084 5.9682C37.5444 6.02777 37.4981 6.09838 37.4716 6.18222C37.4297 6.26165 37.412 6.34549 37.4142 6.43816L37.4385 6.61467C37.4694 6.72719 37.5268 6.82428 37.6084 6.90591L37.743 7.00961C37.8467 7.06918 37.957 7.10007 38.0762 7.10007Z" fill="#1C294F"/>
<path d="M17.4 15.9101V15.0496C17.4 14.904 17.4 14.7561 17.4 14.6105C17.4 14.5796 17.4 14.5509 17.4 14.52C17.4 14.4671 17.4 14.4164 17.4066 14.3634C17.4176 14.2443 17.3978 14.3656 17.4286 14.2443C17.5368 13.8096 17.7574 13.5206 18.1501 13.3132C18.3178 13.2249 18.534 13.1808 18.7569 13.1764C19.1165 13.172 19.4762 13.1764 19.8358 13.1764C21.8877 13.1764 23.9397 13.1764 25.9916 13.1764C28.9724 13.1764 31.951 13.1764 34.9318 13.1764H50.1161C50.2838 13.1764 50.4735 13.1808 50.5684 13.2028C50.8067 13.2602 50.9258 13.3043 51.1332 13.4632C51.2502 13.5537 51.3958 13.728 51.4995 13.9243C51.5657 14.0501 51.6275 14.2773 51.6341 14.4406C51.6341 14.4825 51.6341 14.5245 51.6341 14.5664C51.6341 14.9525 51.6341 15.3364 51.6341 15.7225V21.8629C51.6341 22.0063 51.6341 22.1497 51.6341 22.2931C51.6341 22.5292 51.6032 22.73 51.5304 22.8932C51.2833 23.4338 50.8199 23.703 50.2485 23.7052C50.0455 23.7052 49.8447 23.7052 49.6417 23.7052H30.9692C30.1175 23.7052 30.1153 25.029 30.9692 25.029H45.2025C46.8992 25.029 48.5959 25.0577 50.2926 25.029C51.462 25.0092 52.499 24.2568 52.8454 23.1315C52.9778 22.6991 52.9579 22.249 52.9579 21.8033C52.9579 20.4089 52.9579 19.0144 52.9579 17.62C52.9579 16.2256 52.9733 15.5593 52.9579 14.5289C52.9425 13.3904 52.2408 12.3843 51.1641 12.0004C50.8398 11.8856 50.4978 11.8525 50.158 11.8525H27.7721C25.4003 11.8525 23.0306 11.8525 20.6588 11.8525H18.9555C18.8562 11.8525 18.7591 11.8503 18.6598 11.8525C17.3382 11.9055 16.2571 12.905 16.096 14.2134C16.0276 14.7694 16.0739 15.3496 16.0739 15.9079C16.0739 16.7595 17.3978 16.7617 17.3978 15.9079L17.4 15.9101Z" fill="#1C294F"/>
<path d="M45.1855 18.9516C45.276 18.956 45.362 18.9362 45.4415 18.8943C45.5231 18.8678 45.5937 18.8215 45.6555 18.7575C45.7195 18.6979 45.7658 18.6273 45.7923 18.5435C45.8342 18.464 45.8519 18.3802 45.8497 18.2875L45.8254 18.111C45.7945 17.9985 45.7371 17.9014 45.6555 17.8198L45.5209 17.7161C45.4172 17.6565 45.3069 17.6256 45.1877 17.6256C45.0973 17.6212 45.0112 17.641 44.9318 17.683C44.8502 17.7094 44.7796 17.7558 44.7178 17.8198C44.6538 17.8793 44.6075 17.9499 44.581 18.0338C44.5391 18.1132 44.5214 18.1971 44.5236 18.2897L44.5479 18.4662C44.5788 18.5788 44.6361 18.6758 44.7178 18.7575L44.8524 18.8612C44.9561 18.9207 45.0664 18.9516 45.1855 18.9516Z" fill="#1C294F"/>
<path d="M41.6287 18.9566C42.4803 18.9566 42.4825 17.6328 41.6287 17.6328C40.7748 17.6328 40.7748 18.9566 41.6287 18.9566Z" fill="#1C294F"/>
<path d="M38.0762 18.9516C38.1666 18.956 38.2527 18.9362 38.3321 18.8943C38.4137 18.8678 38.4843 18.8215 38.5461 18.7575C38.6101 18.6979 38.6564 18.6273 38.6829 18.5435C38.7248 18.464 38.7425 18.3802 38.7403 18.2875L38.716 18.111C38.6851 17.9985 38.6277 17.9014 38.5461 17.8198L38.4115 17.7161C38.3078 17.6565 38.1975 17.6256 38.0784 17.6256C37.9879 17.6212 37.9019 17.641 37.8224 17.683C37.7408 17.7094 37.6702 17.7558 37.6084 17.8198C37.5444 17.8793 37.4981 17.9499 37.4716 18.0338C37.4297 18.1132 37.412 18.1971 37.4142 18.2897L37.4385 18.4662C37.4694 18.5788 37.5268 18.6758 37.6084 18.7575L37.743 18.8612C37.8467 18.9207 37.957 18.9516 38.0762 18.9516Z" fill="#1C294F"/>
<path d="M30.9699 25.0348H47.0456C48.1245 25.0348 49.2034 25.0193 50.2823 25.0348C50.7699 25.0414 51.2002 25.2731 51.4473 25.6879C51.6105 25.9636 51.637 26.2041 51.637 26.5682V29.1055C51.637 30.8111 51.6635 32.5188 51.637 34.2243C51.626 34.8862 51.1869 35.4224 50.4963 35.5526C50.5537 35.5415 50.3684 35.5636 50.3353 35.5636C50.3198 35.5636 50.3088 35.5636 50.2933 35.5636C50.2845 35.5636 50.2757 35.5636 50.2647 35.5636C50.2205 35.5636 50.1764 35.5636 50.1323 35.5636H31.4399C30.5882 35.5636 30.586 36.8874 31.4399 36.8874H49.7726C50.3816 36.8874 50.9552 36.872 51.5223 36.5873C52.3695 36.1593 52.9013 35.2745 52.9542 34.339C52.9653 34.1471 52.9586 33.9551 52.9586 33.7632V27.4794C52.9586 26.6609 53.0314 25.8291 52.6233 25.0833C52.107 24.139 51.1229 23.7109 50.0881 23.7109H30.9677C30.116 23.7109 30.1138 25.0348 30.9677 25.0348H30.9699Z" fill="#1C294F"/>
<path d="M45.1855 30.811C45.276 30.8154 45.362 30.7956 45.4415 30.7536C45.5231 30.7272 45.5937 30.6808 45.6555 30.6168C45.7195 30.5573 45.7658 30.4867 45.7923 30.4028C45.8342 30.3234 45.8519 30.2396 45.8497 30.1469L45.8254 29.9704C45.7945 29.8579 45.7371 29.7608 45.6555 29.6791L45.5209 29.5754C45.4172 29.5159 45.3069 29.485 45.1877 29.485C45.0973 29.4806 45.0112 29.5004 44.9318 29.5423C44.8502 29.5688 44.7796 29.6152 44.7178 29.6791C44.6538 29.7387 44.6075 29.8093 44.581 29.8932C44.5391 29.9726 44.5214 30.0564 44.5236 30.1491L44.5479 30.3256C44.5788 30.4381 44.6361 30.5352 44.7178 30.6168L44.8524 30.7205C44.9561 30.7801 45.0664 30.811 45.1855 30.811Z" fill="#1C294F"/>
<path d="M41.6287 30.8082C42.4803 30.8082 42.4825 29.4844 41.6287 29.4844C40.7748 29.4844 40.7748 30.8082 41.6287 30.8082Z" fill="#1C294F"/>
<path d="M38.0762 30.811C38.1666 30.8154 38.2527 30.7956 38.3321 30.7536C38.4137 30.7272 38.4843 30.6808 38.5461 30.6168C38.6101 30.5573 38.6564 30.4867 38.6829 30.4028C38.7248 30.3234 38.7425 30.2396 38.7403 30.1469L38.716 29.9704C38.6851 29.8579 38.6277 29.7608 38.5461 29.6791L38.4115 29.5754C38.3078 29.5159 38.1975 29.485 38.0784 29.485C37.9879 29.4806 37.9019 29.5004 37.8224 29.5423C37.7408 29.5688 37.6702 29.6152 37.6084 29.6791C37.5444 29.7387 37.4981 29.8093 37.4716 29.8932C37.4297 29.9726 37.412 30.0564 37.4142 30.1491L37.4385 30.3256C37.4694 30.4381 37.5268 30.5352 37.6084 30.6168L37.743 30.7205C37.8467 30.7801 37.957 30.811 38.0762 30.811Z" fill="#1C294F"/>
<path d="M33.8477 36.3974V48.3714C33.8477 49.223 35.1715 49.2252 35.1715 48.3714V36.3974C35.1715 35.5457 33.8477 35.5435 33.8477 36.3974Z" fill="#1C294F"/>
<path d="M37.387 51.9124C37.3804 52.5323 37.2083 53.0795 36.831 53.6157C36.7648 53.7106 36.7118 53.7723 36.5927 53.8959C36.5442 53.9466 36.4912 53.9974 36.4405 54.0459C36.4052 54.079 36.3699 54.1099 36.3323 54.1408C36.3213 54.1496 36.2485 54.2114 36.2993 54.1717C36.1779 54.2666 36.0433 54.3504 35.9087 54.4276C35.7587 54.5137 35.6506 54.5622 35.5403 54.6019C34.34 55.03 33.111 54.7012 32.2792 53.737C32.1667 53.6069 31.9218 53.2009 31.8578 53.0464C31.796 52.9008 31.7497 52.7464 31.7122 52.5941C31.6945 52.5213 31.6791 52.4507 31.6659 52.3757C31.6438 52.2565 31.6504 52.3007 31.6416 52.1793C31.5931 51.5284 31.7232 50.9592 32.0498 50.4186C32.6609 49.4081 33.9097 48.8499 35.0482 49.0838C35.7499 49.2272 36.275 49.5493 36.7405 50.0877C37.1509 50.5621 37.3826 51.2615 37.3892 51.9124C37.398 52.764 38.7219 52.7662 38.713 51.9124C38.6932 50.1362 37.5878 48.5807 35.9308 47.9585C34.3223 47.3562 32.3896 47.8835 31.3018 49.2073C30.2141 50.5312 29.9824 52.5434 30.9091 54.0746C31.8313 55.6014 33.6251 56.3626 35.366 56.0272C37.3076 55.6522 38.6932 53.8606 38.7152 51.9146C38.7241 51.0629 37.4002 51.0629 37.3914 51.9146L37.387 51.9124Z" fill="#1C294F"/>
<path d="M14.133 46.1767V41.7799L11.5449 40.706L8.43621 43.8147L5.5417 40.9202L8.6504 37.8115L7.57648 35.2234H3.17969V31.13H7.57648L8.6504 28.5419L5.5417 25.4332L8.43621 22.5387L11.5449 25.6474L14.133 24.5765V20.1797H18.2264V24.5765L20.8145 25.6474L23.9232 22.5387L26.8177 25.4332L23.709 28.5419L24.7829 31.13H29.1797V35.2234H24.7829L23.709 37.8115L26.8177 40.9202L23.9232 43.8147L20.8145 40.706L18.2264 41.7799V46.1767H14.133ZM16.1797 28.0451C13.3477 28.0451 11.0451 30.3477 11.0451 33.1797C11.0451 36.0117 13.3477 38.3142 16.1797 38.3142C19.0117 38.3142 21.3142 36.0117 21.3142 33.1797C21.3142 30.3477 19.0117 28.0451 16.1797 28.0451Z" stroke="#FE5B00" stroke-width="1.25" stroke-linecap="round" stroke-linejoin="round"/>
</g>
<defs>
<clipPath id="clip0_10001_69066">
<rect width="56" height="56.1081" fill="white" transform="translate(0.5)"/>
</clipPath>
</defs>
</svg>
