<svg width="22" height="18" viewBox="0 0 22 18" fill="none" xmlns="http://www.w3.org/2000/svg">
<path fill-rule="evenodd" clip-rule="evenodd" d="M4.92578 0.945313H4.8892H4.88919C3.97747 0.945299 3.24259 0.945289 2.66461 1.023C2.06454 1.10367 1.55929 1.27627 1.15802 1.67755C0.756738 2.07882 0.584142 2.58407 0.503464 3.18415C0.425757 3.76212 0.425768 4.497 0.425782 5.40872V5.40873V5.44531V12.5563V12.5928V12.5929C0.425768 13.5046 0.425757 14.2395 0.503464 14.8174C0.584142 15.4175 0.756738 15.9228 1.15802 16.324C1.55929 16.7253 2.06454 16.8979 2.66461 16.9786C3.24259 17.0563 3.97746 17.0563 4.88919 17.0563H4.88921H4.92578H17.0737H17.1103H17.1103C18.022 17.0563 18.7569 17.0563 19.3349 16.9786C19.9349 16.8979 20.4402 16.7253 20.8415 16.324C21.2428 15.9228 21.4153 15.4175 21.496 14.8174C21.5737 14.2395 21.5737 13.5046 21.5737 12.5929V12.5929V12.5563V5.44531V5.40871V5.40869C21.5737 4.49698 21.5737 3.76212 21.496 3.18415C21.4153 2.58407 21.2428 2.07882 20.8415 1.67755C20.4402 1.27627 19.9349 1.10367 19.3349 1.023C18.7569 0.945288 18.022 0.945299 17.1103 0.945313H17.0737H4.92578ZM1.86512 2.38465C2.04963 2.20014 2.30868 2.07985 2.79786 2.01408C3.30143 1.94638 3.96884 1.94531 4.92578 1.94531H17.0737C18.0307 1.94531 18.6981 1.94638 19.2016 2.01408C19.6908 2.07985 19.9499 2.20014 20.1344 2.38465C20.3189 2.56916 20.4392 2.82821 20.5049 3.31739C20.5594 3.72227 20.5707 4.23305 20.5731 4.91507L11.6706 9.36633C11.2483 9.57748 10.7512 9.57748 10.3289 9.36633L1.4264 4.91507C1.42876 4.23305 1.44011 3.72226 1.49455 3.31739C1.56032 2.82821 1.68061 2.56916 1.86512 2.38465ZM1.42578 6.0328V12.5563C1.42578 13.5132 1.42684 14.1806 1.49455 14.6842C1.56032 15.1734 1.68061 15.4324 1.86512 15.6169C2.04963 15.8014 2.30868 15.9217 2.79786 15.9875C3.30143 16.0552 3.96884 16.0563 4.92578 16.0563H17.0737C18.0307 16.0563 18.6981 16.0552 19.2016 15.9875C19.6908 15.9217 19.9499 15.8014 20.1344 15.6169C20.3189 15.4324 20.4392 15.1734 20.5049 14.6842C20.5726 14.1806 20.5737 13.5132 20.5737 12.5563V6.0328L12.1178 10.2608C11.414 10.6127 10.5855 10.6127 9.88171 10.2608L1.42578 6.0328Z" fill="white"/>
</svg>
