<svg width="14" height="18" viewBox="0 0 14 18" fill="none" xmlns="http://www.w3.org/2000/svg">
<path fill-rule="evenodd" clip-rule="evenodd" d="M7.99767 1.00969C8.04382 1.01378 8.07893 1.01955 8.1127 1.02766C8.21474 1.05216 8.31228 1.09256 8.40175 1.14739C8.49093 1.20204 8.57371 1.28027 8.84996 1.55653L12.4444 5.151C12.7207 5.42726 12.7989 5.51003 12.8536 5.59921C12.9084 5.68868 12.9488 5.78623 12.9733 5.88826C12.9812 5.92134 12.9869 5.95571 12.991 6.00046H9.89767C9.46938 6.00046 9.17824 6.00007 8.95319 5.98169C8.73398 5.96378 8.62188 5.93131 8.54368 5.89147C8.35552 5.79559 8.20254 5.64261 8.10667 5.45445C8.06682 5.37625 8.03436 5.26415 8.01645 5.04494C7.99806 4.8199 7.99767 4.52875 7.99767 4.10046V1.00969ZM6.99767 1.00003H2.9C2.47171 1.00003 2.18056 1.00042 1.95552 1.01881C1.73631 1.03672 1.62421 1.06918 1.54601 1.10903C1.35785 1.2049 1.20487 1.35788 1.10899 1.54604C1.06915 1.62424 1.03669 1.73634 1.01878 1.95555C1.00039 2.18059 1 2.47174 1 2.90003V15.1012C1 15.5295 1.00039 15.8207 1.01878 16.0457C1.03669 16.2649 1.06915 16.377 1.10899 16.4552C1.20487 16.6434 1.35785 16.7964 1.54601 16.8923C1.62421 16.9321 1.73631 16.9646 1.95552 16.9825C2.18056 17.0009 2.47171 17.0012 2.9 17.0012H11.1009C11.5292 17.0012 11.8204 17.0009 12.0454 16.9825C12.2646 16.9646 12.3767 16.9321 12.4549 16.8923C12.6431 16.7964 12.7961 16.6434 12.8919 16.4552C12.9318 16.377 12.9642 16.2649 12.9822 16.0457C13.0005 15.8207 13.0009 15.5295 13.0009 15.1012V7.00046H9.89767H9.87704C9.47455 7.00047 9.14236 7.00047 8.87176 6.97836C8.59071 6.9554 8.33236 6.90612 8.08969 6.78247C7.71337 6.59073 7.40741 6.28477 7.21566 5.90844C7.09202 5.66577 7.04273 5.40742 7.01977 5.12637C6.99766 4.85578 6.99767 4.5236 6.99767 4.12111V4.10046V1.00003ZM8.34614 0.0552917C8.1148 -0.000249795 7.8749 -0.000135593 7.5574 1.54453e-05L7.50646 3.15386e-05H2.9L2.87935 3.13001e-05C2.47687 2.49224e-05 2.14469 1.96772e-05 1.87409 0.0221284C1.59304 0.045091 1.33469 0.0943731 1.09202 0.218019C0.715695 0.409765 0.409734 0.715726 0.217988 1.09205C0.0943423 1.33472 0.0450601 1.59307 0.0220975 1.87412C-1.10025e-05 2.14471 -5.93566e-06 2.47689 2.03705e-07 2.87937V2.87938V2.90003V15.1012V15.1219V15.1219C-5.93566e-06 15.5244 -1.1002e-05 15.8566 0.0220975 16.1272C0.0450601 16.4082 0.0943423 16.6666 0.217988 16.9092C0.409734 17.2856 0.715695 17.5915 1.09202 17.7833C1.33469 17.9069 1.59304 17.9562 1.87409 17.9792C2.14469 18.0013 2.47688 18.0013 2.87938 18.0012H2.87943H2.9H11.1009H11.1215H11.1216C11.524 18.0013 11.8562 18.0013 12.1268 17.9792C12.4079 17.9562 12.6662 17.9069 12.9089 17.7833C13.2852 17.5915 13.5912 17.2856 13.7829 16.9092C13.9066 16.6666 13.9559 16.4082 13.9788 16.1272C14.0009 15.8566 14.0009 15.5244 14.0009 15.1219V15.1219V15.1012V6.4945L14.0009 6.44357V6.44356C14.0011 6.12606 14.0012 5.88616 13.9457 5.65482C13.8967 5.45075 13.8159 5.25566 13.7062 5.07671C13.5819 4.87385 13.4122 4.7043 13.1876 4.4799L13.1515 4.44389L9.55707 0.849422L9.52106 0.81339L9.52105 0.813379C9.29666 0.588773 9.12711 0.419062 8.92425 0.294751C8.74531 0.185094 8.55022 0.104285 8.34614 0.0552917Z" fill="white"/>
</svg>
