<svg width="60" height="63" viewBox="0 0 60 63" fill="none" xmlns="http://www.w3.org/2000/svg">
<path fill-rule="evenodd" clip-rule="evenodd" d="M25.6342 2.5C12.8122 2.5 2.41797 12.8943 2.41797 25.7162C2.41797 38.5382 12.8122 48.9324 25.6342 48.9324C38.4562 48.9324 48.8504 38.5382 48.8504 25.7162C48.8504 12.8943 38.4562 2.5 25.6342 2.5ZM0.417969 25.7162C0.417969 11.7897 11.7077 0.5 25.6342 0.5C39.5607 0.5 50.8504 11.7897 50.8504 25.7162C50.8504 39.6427 39.5607 50.9324 25.6342 50.9324C11.7077 50.9324 0.417969 39.6427 0.417969 25.7162ZM24.6927 37.5103V38.5103H26.6927V37.5103V27.0052H37.1978H38.1978V25.0052H37.1978H26.6927V14.5V13.5H24.6927V14.5V25.0052H14.1875H13.1875V27.0052H14.1875H24.6927V37.5103ZM46.5587 48.2265L45.8516 47.5194L44.4373 48.9336L45.1445 49.6407L57.2526 61.7488L57.9597 62.4559L59.3739 61.0417L58.6668 60.3346L46.5587 48.2265Z" fill="white"/>
</svg>
