<?xml version="1.0" encoding="UTF-8"?>
<svg id="_レイヤー_2" data-name="レイヤー 2" xmlns="http://www.w3.org/2000/svg" width="61.61" height="16" viewBox="0 0 61.61 16">
  <g id="icon_tw_setl.svg" data-name="icon tw setl.svg">
    <g>
      <path id="Twitter" d="m28.83,13.48h1.63V3.62h1.89v-1.54h-5.41v1.54h1.89v9.86Zm11.68-8.11h-1.73l-.98,5.04h-.03l-.86-5.04h-1.28l-.91,5.04h-.03l-.99-5.04h-1.73l1.92,8.11h1.44l.9-4.82h.03l.9,4.82h1.44l1.91-8.11Zm.85,8.11h1.63V5.37h-1.63v8.11Zm0-9.76h1.63v-1.63h-1.63v1.63Zm3.23,1.65h-.82v1.28h.81v4.93c0,.06,0,.13,0,.19s.01.13.02.19c.07.39.26.76.55,1.04.38.34.88.52,1.39.47h.67v-1.53c-.26.02-.53-.02-.78-.12-.19-.17-.28-.43-.23-.68v-4.5h1.01v-1.28h-1.01v-2.46h-1.63v2.46h0Zm3.88,0h-.82v1.28h.82v4.93c0,.06,0,.13,0,.19s.01.13.02.19c.07.39.26.76.54,1.04.38.34.88.52,1.39.47h.67v-1.53c-.26.02-.53-.02-.78-.12-.19-.17-.28-.43-.23-.68v-4.5h1.01v-1.28h-1.01v-2.46h-1.63v2.46h0Zm8.22,4.67v-2.24c.02-.66-.21-1.3-.65-1.8-.46-.5-1.11-.76-1.78-.73-.45-.01-.89.1-1.29.32-.35.2-.64.49-.84.85-.12.23-.19.47-.23.73-.05.3-.07.61-.07.92v2.67c0,.31.02.61.07.91.04.26.12.5.23.74.19.35.49.65.84.84.39.21.84.32,1.29.31.34,0,.69-.06,1.01-.18.29-.12.55-.29.77-.52.22-.22.38-.48.49-.78.11-.3.17-.63.17-.95h-1.63s0,.07,0,.1c0,.03-.01.07-.02.1-.04.15-.12.29-.22.42-.14.14-.34.21-.54.19-.21.01-.42-.06-.58-.21-.15-.16-.23-.37-.22-.59v-1.1h3.23Zm-3.23-2.21c-.02-.25.06-.5.22-.7.33-.31.84-.31,1.17,0,.16.2.24.45.22.7v.93h-1.6v-.93h0Zm4.35,5.65h1.63v-4.82c-.03-.42.1-.83.36-1.16.22-.25.5-.43.81-.52.08-.03.17-.05.26-.06.08-.01.16-.02.24-.02.09,0,.17,0,.26.02.08.02.16.04.24.07v-1.73c-.32,0-.64.04-.94.15-.27.1-.52.25-.74.42-.08.05-.16.11-.24.18l-.24.21v-.86h-1.63v8.11h0Z" style="fill: #fff; fill-rule: evenodd;"/>
      <path id="sns_tw.svg" data-name="sns tw.svg" d="m13.64,0c-2.23,0-4.04,1.81-4.04,4.04,0,.31.04.62.11.92-3.25-.16-6.28-1.7-8.33-4.22-1.07,1.85-.53,4.21,1.25,5.39-.64-.02-1.27-.19-1.83-.51v.05c0,1.92,1.36,3.58,3.24,3.96-.6.16-1.22.18-1.83.07.53,1.65,2.05,2.77,3.78,2.81-1.43,1.12-3.2,1.73-5.02,1.73-.32,0-.64-.02-.96-.06,5.35,3.42,12.46,1.87,15.88-3.48,1.18-1.85,1.81-4,1.81-6.2,0-.18,0-.35-.01-.52.79-.57,1.47-1.28,2.02-2.09-.74.33-1.52.54-2.32.64.84-.5,1.47-1.3,1.78-2.23-.79.47-1.66.8-2.57.98C15.82.46,14.76,0,13.64,0" style="fill: #fff; fill-rule: evenodd;"/>
    </g>
  </g>
</svg>