<svg width="65" height="57" viewBox="0 0 65 57" fill="none" xmlns="http://www.w3.org/2000/svg">
<g clip-path="url(#clip0_10001_68924)">
<path d="M5.10633 8.96875C-0.0750676 18.559 0.563593 29.7252 5.80679 38.4296" stroke="#EAEBEF" stroke-width="2" stroke-miterlimit="10"/>
<path d="M52.7915 23.2805C52.7915 34.9514 43.3303 44.4126 31.6594 44.4126C19.9885 44.4126 10.5273 34.9514 10.5273 23.2805C10.5273 11.6096 19.9885 2.14844 31.6594 2.14844C43.3303 2.14844 52.7915 11.6096 52.7915 23.2805Z" fill="#EAEBEF" stroke="#EAEBEF"/>
<path d="M51.7578 0.835938C64.5516 10.2613 67.2814 28.2778 57.8457 41.0716" stroke="#EAEBEF" stroke-width="2" stroke-miterlimit="10"/>
<path d="M24.4501 14.0078H18.2695V25.3389H24.4501V14.0078Z" fill="white" stroke="#1C294F" stroke-width="1.5" stroke-miterlimit="10"/>
<path d="M51.2343 55.2129H16.2109V33.2718C22.3915 26.298 26.0896 22.2498 33.0633 15.0391H33.2282C40.2019 22.2498 44.0339 26.298 51.2446 33.2718V55.2129H51.2343Z" fill="white" stroke="#1C294F" stroke-width="1.5" stroke-miterlimit="10"/>
<path d="M33.7219 11.9453L12.0898 33.5774L15.1801 36.6677L33.7219 18.1259L52.2637 36.6677L55.354 33.5774L33.7219 11.9453Z" fill="white" stroke="#1C294F" stroke-width="1.5" stroke-miterlimit="10"/>
<path d="M10.0273 55.2109H57.4119" stroke="#1C294F" stroke-width="1.5" stroke-miterlimit="10"/>
<path d="M7.96645 55.2109H5.90625" stroke="#1C294F" stroke-width="1.5" stroke-miterlimit="10"/>
<path d="M3.84926 55.2109H1.78906" stroke="#1C294F" stroke-width="1.5" stroke-miterlimit="10"/>
<path d="M63.593 55.2109H59.4727" stroke="#1C294F" stroke-width="1.5" stroke-miterlimit="10"/>
<path d="M34.7509 28.4297H32.6907C30.4151 28.4297 28.5703 30.2745 28.5703 32.5501V42.8511C28.5703 45.1267 30.4151 46.9715 32.6907 46.9715H34.7509C37.0265 46.9715 38.8713 45.1267 38.8713 42.8511V32.5501C38.8713 30.2745 37.0265 28.4297 34.7509 28.4297Z" fill="white" stroke="#FE5B00" stroke-width="1.5" stroke-miterlimit="10"/>
<path d="M42.991 37.7031H24.4492V50.0643H42.991V37.7031Z" fill="white" stroke="#FE5B00" stroke-width="1.5" stroke-miterlimit="10"/>
<path d="M33.7188 41.8203V45.9407" stroke="#FE5B00" stroke-width="1.5" stroke-miterlimit="10"/>
</g>
<defs>
<clipPath id="clip0_10001_68924">
<rect width="64" height="56.2434" fill="white" transform="translate(0.5)"/>
</clipPath>
</defs>
</svg>
