<svg width="32" height="31" viewBox="0 0 32 31" fill="none" xmlns="http://www.w3.org/2000/svg">
<g clip-path="url(#clip0_12023_1780)">
<path d="M31.531 2.84103H25.0168C24.8913 2.84103 24.7721 2.89123 24.6843 2.97907L23.5424 4.12097C21.4389 2.61359 18.8665 1.72266 16.0886 1.72266C14.6424 1.72266 13.2229 1.96108 11.8677 2.43321C11.623 2.51791 11.4928 2.78613 11.5775 3.0324C11.6622 3.27709 11.9304 3.40728 12.1767 3.32258C13.2841 2.93671 14.4385 2.72025 15.6181 2.67477V14.2962L5.60129 20.1453C4.70879 18.4779 4.20058 16.5737 4.20058 14.5534C4.20058 11.112 5.6907 7.84157 8.28979 5.58129C8.48586 5.41032 8.50625 5.11386 8.33528 4.91779C8.16431 4.72172 7.86785 4.70133 7.67178 4.87231C4.86721 7.3114 3.25945 10.8406 3.25945 14.555C3.25945 19.4692 6.03735 23.7435 10.1046 25.8987L6.84045 28.112H0.470565C0.210186 28.112 0 28.3221 0 28.5825C0 28.8429 0.210186 29.0531 0.470565 29.0531H6.98476C7.07887 29.0531 7.17141 29.0248 7.24827 28.9715L10.9767 26.4446C11.0128 26.4211 11.041 26.3913 11.0677 26.3599C12.6111 27.0187 14.3083 27.3841 16.0886 27.3841C23.1628 27.3841 28.9178 21.6291 28.9178 14.555C28.9178 10.5991 27.1171 7.0573 24.2937 4.70133L25.2113 3.78373H31.5294C31.7898 3.78373 32 3.57355 32 3.31317C32 3.05279 31.7898 2.8426 31.5294 2.8426L31.531 2.84103ZM16.5592 2.67634C17.2807 2.70457 17.9866 2.79868 18.6705 2.94926L16.5592 5.06053V2.67634ZM16.5592 6.38282C16.5764 6.37027 16.5937 6.35772 16.6078 6.34204L19.7167 3.2316C20.4351 3.46218 21.1252 3.75863 21.7778 4.11626L16.5592 9.33483V6.38125V6.38282ZM16.5592 10.6618C16.5686 10.654 16.578 10.6477 16.5874 10.6399L22.6091 4.6182C23.1691 4.98681 23.6961 5.40248 24.1855 5.85736L16.5608 13.4821V10.6618H16.5592ZM16.0886 26.4414C11.8896 26.4414 8.19411 24.2517 6.0797 20.9547L15.9255 15.2043L21.6868 25.036C20.0178 25.9301 18.1121 26.4399 16.0886 26.4399V26.4414ZM22.4962 24.5592L21.5346 22.92C21.5346 22.92 21.5472 22.9106 21.5519 22.9059L27.7822 16.6756C27.1845 19.979 25.2192 22.8087 22.4946 24.5608L22.4962 24.5592ZM27.9767 14.5534C27.9767 14.7589 27.972 14.9628 27.961 15.1667L21.0452 22.0824L19.9394 20.1939C19.952 20.1829 19.9661 20.1751 19.9771 20.1625L27.7728 12.3668C27.9045 13.0758 27.9782 13.8068 27.9782 14.5534H27.9767ZM27.5171 11.2908L19.4485 19.3594L18.2971 17.394L26.6277 9.06347C26.9963 9.76775 27.2959 10.5128 27.5171 11.2908ZM24.8474 6.52556C25.3274 7.04945 25.7603 7.61727 26.1415 8.21959L17.8062 16.5549L16.6862 14.6428C16.7364 14.6208 16.7835 14.5895 16.8243 14.5487L24.8474 6.52556Z" fill="#202F51"/>
<path d="M22.5 1.3804C22.5 1.59737 22.6751 1.77252 22.8921 1.77252H26.2238C26.4408 1.77252 26.6159 1.59737 26.6159 1.3804C26.6159 1.16343 26.4408 0.988281 26.2238 0.988281H22.8921C22.6751 0.988281 22.5 1.16343 22.5 1.3804Z" fill="#202F51"/>
<path d="M0.4429 22.8311H3.7746C3.99157 22.8311 4.16672 22.656 4.16672 22.439C4.16672 22.222 3.99157 22.0469 3.7746 22.0469H0.4429C0.225927 22.0469 0.0507812 22.222 0.0507812 22.439C0.0507812 22.656 0.225927 22.8311 0.4429 22.8311Z" fill="#202F51"/>
</g>
<defs>
<clipPath id="clip0_12023_1780">
<rect width="32" height="29.3333" fill="white" transform="translate(0 0.796875)"/>
</clipPath>
</defs>
</svg>
