<svg width="20" height="20" viewBox="0 0 20 20" fill="none" xmlns="http://www.w3.org/2000/svg">
<path d="M17.5 2.5L18 2.5L18 2L17.5 2L17.5 2.5ZM8.81311 10.4798C8.61785 10.675 8.61785 10.9916 8.81311 11.1869C9.00838 11.3821 9.32496 11.3821 9.52022 11.1869L8.81311 10.4798ZM10.8333 3L17.5 3L17.5 2L10.8333 2L10.8333 3ZM17 2.5L17 9.16667L18 9.16667L18 2.5L17 2.5ZM17.1464 2.14645L8.81311 10.4798L9.52022 11.1869L17.8536 2.85355L17.1464 2.14645Z" fill="#222222"/>
<path d="M7.49935 3.33594V3.33594C6.41374 3.33594 5.87094 3.33594 5.43056 3.47479C4.49707 3.76911 3.76586 4.50033 3.47153 5.43382C3.33268 5.87419 3.33268 6.417 3.33268 7.5026L3.33268 10.6693C3.33268 13.4977 3.33268 14.9119 4.21136 15.7906C5.09004 16.6693 6.50425 16.6693 9.33268 16.6693L12.4994 16.6693C13.585 16.6693 14.1278 16.6693 14.5681 16.5304C15.5016 16.2361 16.2328 15.5049 16.5272 14.5714C16.666 14.131 16.666 13.5882 16.666 12.5026V12.5026" stroke="#222222" stroke-linecap="round"/>
</svg>
