<svg width="28" height="27" viewBox="0 0 28 27" fill="none" xmlns="http://www.w3.org/2000/svg">
<g clip-path="url(#clip0_12023_1763)">
<path d="M2.85021 14.6948C2.98281 15.2819 3.91699 19.1124 6.19209 21.3876C6.27702 21.4725 6.39174 21.5187 6.50796 21.5187C6.56606 21.5187 6.62417 21.5082 6.6793 21.4844C6.84617 21.4159 6.95493 21.252 6.95493 21.0717V16.9461C7.08306 16.9848 7.2112 17.0221 7.33933 17.0564C7.34678 17.0996 7.35721 17.1428 7.37807 17.183C9.02591 20.4891 12.9191 22.6257 17.295 22.6257C18.5644 22.6257 19.7101 22.4782 20.7799 22.1802V26.349C20.7799 26.5293 20.8886 26.6931 21.0555 26.7617C21.1106 26.784 21.1687 26.7959 21.2268 26.7959C21.3431 26.7959 21.4578 26.7512 21.5427 26.6648C23.721 24.4866 24.67 20.884 24.8637 20.0645C26.8855 18.4152 27.9985 16.228 27.9985 13.8828C27.9985 10.0955 25.0619 6.77594 20.6771 5.58699C19.1201 2.32854 15.2389 0.0117188 10.7036 0.0117188C4.802 0.0117188 0 3.93318 0 8.75455C0 10.973 1.01165 13.0738 2.85021 14.6948ZM21.0913 6.64483C24.7207 7.85911 27.106 10.6929 27.106 13.8843C27.106 15.9792 26.0869 17.9429 24.2365 19.4253C24.1933 19.4521 24.1545 19.4849 24.1217 19.5252C24.0219 19.622 23.9757 19.7546 23.9877 19.8857C23.8223 20.5666 23.1205 23.171 21.6738 25.1392V21.8107C21.6738 21.8107 21.6738 21.8047 21.6738 21.8003C21.7483 21.687 21.7736 21.5425 21.726 21.4054C21.6455 21.173 21.3907 21.0493 21.1568 21.1313C19.9962 21.5365 18.7327 21.7332 17.2964 21.7332C13.4957 21.7332 10.1046 20.0138 8.46869 17.3082C9.19874 17.4348 9.94519 17.4989 10.7065 17.4989C16.6081 17.4989 21.4101 13.5774 21.4101 8.75604C21.4101 8.02896 21.2984 7.32125 21.0927 6.64483H21.0913ZM10.7036 0.905669C16.1134 0.905669 20.5132 4.42634 20.5132 8.75455C20.5132 13.0828 16.112 16.6034 10.7036 16.6034C9.30006 16.6034 7.94423 16.371 6.67483 15.9121C6.44389 15.8287 6.18613 15.9479 6.1027 16.1803C6.07588 16.2533 6.0729 16.3263 6.08333 16.3978C6.06992 16.4395 6.06098 16.4842 6.06098 16.5304V19.8589C4.49955 17.7358 3.80674 14.8692 3.71734 14.4803C3.71883 14.3507 3.66817 14.2225 3.56239 14.1317C1.84154 12.6686 0.89395 10.7585 0.89395 8.75306C0.89395 4.42634 5.29516 0.905669 10.7036 0.905669Z" fill="#202F51"/>
<path d="M6.39229 9.10879H14.6822C14.9295 9.10879 15.1292 8.90914 15.1292 8.66182C15.1292 8.41449 14.9295 8.21484 14.6822 8.21484H6.39229C6.14496 8.21484 5.94531 8.41449 5.94531 8.66182C5.94531 8.90914 6.14496 9.10879 6.39229 9.10879Z" fill="#202F51"/>
<path d="M6.39229 6.94473H12.1717C12.419 6.94473 12.6186 6.74508 12.6186 6.49776C12.6186 6.25043 12.419 6.05078 12.1717 6.05078H6.39229C6.14496 6.05078 5.94531 6.25043 5.94531 6.49776C5.94531 6.74508 6.14496 6.94473 6.39229 6.94473Z" fill="#202F51"/>
<path d="M14.66 10.3828H6.41182C6.16449 10.3828 5.96484 10.5825 5.96484 10.8298C5.96484 11.0771 6.16449 11.2768 6.41182 11.2768H14.66C14.9073 11.2768 15.107 11.0771 15.107 10.8298C15.107 10.5825 14.9073 10.3828 14.66 10.3828Z" fill="#202F51"/>
</g>
<defs>
<clipPath id="clip0_12023_1763">
<rect width="28" height="26.7842" fill="white" transform="translate(0 0.0117188)"/>
</clipPath>
</defs>
</svg>
