<svg width="109" height="32" viewBox="0 0 109 32" fill="none" xmlns="http://www.w3.org/2000/svg">
<path d="M76.5637 1.36719H64.8208L63.3213 18.0337L53.2766 1.36719H44.4243L41.7324 31.4876H50.657L52.1204 14.9454L62.1289 31.4876H71.0716L73.4563 4.5798L76.5637 4.02957V1.36719Z" fill="#0C3388"/>
<path d="M39.8168 31.4855H34.957L35.3906 26.7109H40.2323L39.8168 31.4855Z" fill="#F08300"/>
<path d="M77.9008 31.4855H73.041L73.4746 26.7109H78.3163L77.9008 31.4855Z" fill="#F08300"/>
<path d="M101.748 13.8759C100.031 12.9707 97.1407 12.0833 93.0939 11.2136C91.4499 10.8763 90.4201 10.5036 90.0227 10.0954C89.5891 9.70487 89.4084 9.27888 89.4446 8.79965C89.4988 8.14293 89.824 7.59271 90.4382 7.13123C91.0344 6.66975 91.8835 6.43901 92.9855 6.43901C94.3224 6.43901 95.3522 6.74075 96.0567 7.36197C96.7613 7.98319 97.1768 8.9594 97.2852 10.3261H107.565V7.68145L105.812 7.46846C105.325 5.80003 104.638 4.09611 103.193 2.96016C101.314 1.46922 98.333 0.8125 94.4127 0.8125C91.215 0.8125 88.6677 1.20298 86.7708 2.0017C84.8739 2.78267 83.3925 3.86537 82.3627 5.24981C81.3329 6.63425 80.7368 8.08969 80.6103 9.63387C80.3935 11.9945 81.1161 13.9292 82.7782 15.4556C84.4222 16.9821 87.2767 18.189 91.3415 19.112C93.8346 19.6622 95.3883 20.2479 96.0387 20.8514C96.689 21.4726 96.96 22.1648 96.9058 22.9458C96.8336 23.7623 96.4 24.49 95.6231 25.1112C94.8282 25.7324 93.7624 26.0519 92.4074 26.0519C90.6008 26.0519 89.2458 25.4484 88.3787 24.2237C87.8548 23.4783 87.5476 22.3778 87.4754 20.9401H78.4062C78.4062 23.9753 78.9663 26.6554 81.1523 29.016C83.2841 31.3234 86.4998 31.9802 91.7209 31.9802C94.6837 31.9802 97.1949 31.5542 99.2183 30.72C101.242 29.8857 102.868 28.6433 104.114 27.0104C105.343 25.3774 106.047 23.6025 106.228 21.6679C106.372 20.0172 106.101 18.544 105.397 17.2128C104.692 15.8816 103.5 14.7634 101.784 13.8759" fill="#0C3388"/>
<path d="M53.4392 14.9454C53.4392 14.9454 41.5157 13.1882 28.5804 15.1228L25.4911 4.5798L28.5804 4.04732V1.36719H14.2179L0 31.4876H9.68338C9.68338 31.4876 13.3869 26.9261 21.5166 22.5953L23.4677 31.4876H33.386L29.7186 18.9922C36.0055 16.7735 43.8642 15.1051 53.4392 14.9454ZM20.2881 16.8978C18.3731 17.448 16.4943 18.1225 14.6696 18.9034L18.5538 9.1591L20.2881 16.8978Z" fill="#0C3388"/>
</svg>
