<svg width="378" height="49" viewBox="0 0 378 49" fill="none" xmlns="http://www.w3.org/2000/svg">
<path d="M179.056 20.542L180.992 20.174C181.008 20.782 181.184 21.934 181.376 22.75C182.464 22.302 183.408 22.11 184.464 22.11C184.56 22.11 184.704 22.11 184.896 22.11C185.232 20.75 185.344 20.158 185.36 19.63L187.376 20.03C187.28 20.222 187.248 20.334 187.216 20.478C186.992 21.342 186.784 22.126 186.72 22.35C187.664 22.59 188.24 22.846 188.864 23.31C190.144 24.254 190.816 25.614 190.816 27.278C190.816 29.63 189.456 31.534 187.072 32.542C186.304 32.878 185.696 33.054 184.464 33.31C184.224 32.51 184.08 32.238 183.472 31.438C184.576 31.342 185.2 31.198 186.08 30.814C187.168 30.35 187.888 29.79 188.32 29.102C188.672 28.51 188.864 27.838 188.864 27.134C188.864 26.078 188.496 25.278 187.696 24.654C187.264 24.318 186.912 24.158 186.256 23.966C185.616 26.158 184.512 28.414 183.344 29.934C182.768 30.67 182.08 31.326 181.44 31.694C180.944 31.998 180.496 32.126 179.952 32.126C178.304 32.126 177.2 30.686 177.2 28.526C177.2 26.558 178.096 24.862 179.76 23.614C179.68 23.374 179.392 21.982 179.216 21.086C179.184 20.878 179.152 20.782 179.056 20.542ZM180.24 25.518C179.344 26.462 178.96 27.358 178.96 28.478C178.96 29.518 179.408 30.238 180.048 30.238C180.496 30.238 181.008 29.886 181.552 29.198C180.816 27.582 180.56 26.846 180.24 25.518ZM182.752 27.63H182.768C182.816 27.518 182.816 27.502 182.864 27.422C183.504 26.334 183.936 25.326 184.464 23.726C183.36 23.726 182.56 23.902 181.712 24.366C181.968 25.47 182.176 26.126 182.672 27.39C182.72 27.518 182.736 27.55 182.752 27.63ZM198.208 20.302L200.272 20.046C200.352 20.526 200.512 21.006 201.152 22.606C202.912 22.286 203.072 22.254 203.984 21.982C203.648 21.406 203.216 20.83 202.688 20.27L203.808 19.71C204.512 20.462 204.944 21.07 205.488 22.062L204.832 22.414L204.992 23.63L204.704 23.678C204.528 23.71 204.4 23.726 204.336 23.742C204.336 23.742 204.144 23.79 203.952 23.822C203.504 23.918 202.8 24.078 201.808 24.27C201.936 24.494 202.016 24.67 202.032 24.702L202.224 25.07C202.8 26.19 203.632 27.502 204.608 28.83L202.752 29.678C202.352 29.31 202.096 29.15 201.648 28.99C200.928 28.75 200.08 28.622 199.12 28.622C196.944 28.622 195.664 29.278 195.664 30.398C195.664 31.438 196.848 32.014 199.024 32.014C200.72 32.014 202.592 31.598 203.84 30.958L204.096 33.006C203.824 33.086 202.528 33.438 202.32 33.486C201.36 33.726 200.112 33.854 198.96 33.854C196.976 33.854 195.376 33.406 194.576 32.638C193.968 32.062 193.632 31.278 193.632 30.478C193.632 29.566 194.048 28.718 194.784 28.094C195.712 27.326 197.04 26.958 198.864 26.958C199.92 26.958 200.832 27.118 201.632 27.422C201.04 26.638 200.768 26.174 199.904 24.51C198.144 24.75 197.136 24.814 194.224 24.91C193.776 24.926 193.776 24.926 193.52 24.958L193.376 23.038C193.856 23.102 194.272 23.118 194.928 23.118C196.128 23.118 198.256 22.974 199.248 22.83C199.2 22.686 198.784 21.646 198.736 21.55L198.464 20.926L198.288 20.446C198.272 20.43 198.24 20.382 198.208 20.302ZM207.44 21.102L206.336 21.726C205.856 20.846 205.328 20.094 204.704 19.406L205.776 18.846C206.512 19.582 206.944 20.19 207.44 21.102ZM217.36 24.238L217.344 25.614C217.344 25.678 217.36 25.806 217.36 25.998C217.712 26.734 217.872 27.39 217.872 28.254C217.872 29.998 217.04 31.502 215.488 32.574C214.816 33.038 214.08 33.374 212.592 33.886C212.144 32.894 211.984 32.654 211.456 32.078C212.768 31.822 213.424 31.598 214.176 31.15C215.264 30.526 215.904 29.71 216.032 28.814C215.568 29.55 214.736 29.95 213.68 29.95C212.944 29.95 212.368 29.774 211.824 29.374C211.072 28.83 210.72 28.126 210.72 27.214C210.72 25.518 212.048 24.302 213.904 24.302C214.592 24.302 215.2 24.478 215.568 24.782C215.552 24.702 215.552 24.702 215.552 24.59C215.536 24.558 215.536 23.662 215.536 23.23C213.248 23.294 211.744 23.342 211.04 23.39C208.624 23.566 208.624 23.566 208.192 23.63L208.128 21.726C208.48 21.758 208.624 21.758 208.912 21.758C209.312 21.758 209.568 21.758 211.632 21.678C212.672 21.646 212.832 21.646 214.144 21.614C214.672 21.598 214.672 21.598 215.504 21.566C215.488 20.046 215.488 20.046 215.408 19.63L217.424 19.614C217.36 20.11 217.36 20.142 217.344 21.518C220.128 21.502 221.376 21.47 221.968 21.406L221.984 23.246C221.392 23.198 220.624 23.166 219.296 23.166C218.912 23.166 218.624 23.166 217.36 23.198V24.238ZM215.52 26.878C215.52 26.206 214.96 25.774 214.08 25.774C213.264 25.774 212.592 26.35 212.592 27.054C212.592 27.79 213.152 28.318 213.952 28.318C214.864 28.318 215.52 27.71 215.52 26.878ZM235.632 28.974H231.92C231.744 29.902 231.472 30.734 231.088 31.55C230.608 32.574 230.08 33.262 229.104 34.158C228.688 33.614 228.368 33.31 227.696 32.862C228.944 31.886 229.504 31.102 229.984 29.678C230.416 28.302 230.576 26.846 230.576 23.902C230.576 21.774 230.544 20.59 230.464 19.918C231.024 19.966 231.392 19.982 232.24 19.982H235.696C236.592 19.982 236.944 19.966 237.424 19.918C237.376 20.318 237.36 20.814 237.36 21.678V32.094C237.36 33.518 236.88 33.886 235.024 33.886C234.752 33.886 234.176 33.87 233.744 33.854C233.664 33.086 233.568 32.638 233.312 32.046C234.096 32.174 234.592 32.222 234.96 32.222C235.52 32.222 235.632 32.142 235.632 31.726V28.974ZM235.632 25.182H232.256C232.24 25.95 232.192 26.638 232.112 27.406H235.632V25.182ZM235.632 23.678V21.582H232.288V23.678H235.632ZM223.84 29.342V21.95C223.84 21.182 223.824 20.798 223.776 20.302C224.224 20.334 224.608 20.35 225.52 20.35H228.048C228.704 20.35 229.008 20.334 229.424 20.302C229.392 20.686 229.376 21.006 229.376 21.758V29.022C229.376 29.886 229.392 30.302 229.408 30.654H227.76V30.062H225.504V31.246H223.744C223.808 30.734 223.84 30.142 223.84 29.342ZM225.488 21.918V24.334H227.76V21.918H225.488ZM225.488 25.822V28.526H227.76V25.822H225.488ZM240.528 31.966V21.71C240.528 21.086 240.496 20.526 240.448 19.998C240.96 20.062 241.488 20.078 242.224 20.078H249.968C250.72 20.078 251.216 20.062 251.696 19.998C251.632 20.606 251.616 21.07 251.616 21.63V31.966C251.616 32.798 251.648 33.326 251.712 33.902H249.776V32.942H242.336V33.902H240.432C240.496 33.358 240.528 32.718 240.528 31.966ZM242.336 21.774V25.486H249.776V21.774H242.336ZM242.336 27.166V31.262H249.776V27.166H242.336ZM255.36 23.07L255.392 21.246C256.048 21.39 257.072 21.454 259.104 21.454C259.536 20.494 259.68 20.014 259.744 19.47L261.84 19.694C261.744 19.854 261.744 19.854 261.2 21.134C261.12 21.31 261.088 21.358 261.056 21.422C261.184 21.406 261.184 21.406 262.064 21.358C263.92 21.246 265.376 21.07 266.256 20.814L266.368 22.638C265.92 22.67 265.92 22.67 265.104 22.766C263.936 22.91 261.904 23.038 260.288 23.086C259.824 23.998 259.376 24.638 258.816 25.214L258.832 25.246C258.944 25.166 258.944 25.166 259.152 25.006C259.744 24.558 260.592 24.286 261.408 24.286C262.656 24.286 263.44 24.878 263.696 25.982C264.928 25.534 265.744 25.246 266.144 25.118C267.008 24.814 267.072 24.798 267.328 24.638L268.08 26.478C267.632 26.542 267.152 26.67 266.304 26.91C266.08 26.974 265.28 27.246 263.904 27.726V27.902C263.92 28.318 263.92 28.318 263.92 28.542C263.92 28.702 263.92 28.974 263.92 29.182C263.904 29.454 263.904 29.598 263.904 29.71C263.904 30.062 263.92 30.286 263.952 30.558L262.096 30.606C262.16 30.318 262.192 29.502 262.192 28.75C262.192 28.526 262.192 28.526 262.192 28.366C261.408 28.734 260.992 28.958 260.656 29.198C260.096 29.614 259.824 30.046 259.824 30.51C259.824 31.342 260.592 31.678 262.528 31.678C264.448 31.678 266.096 31.438 267.232 31.006L267.392 33.07C267.12 33.07 267.04 33.086 266.656 33.134C265.504 33.31 263.968 33.422 262.56 33.422C260.864 33.422 259.808 33.23 258.992 32.75C258.256 32.334 257.824 31.566 257.824 30.686C257.824 30.03 258.016 29.518 258.528 28.91C259.248 28.014 260.16 27.406 261.968 26.654C261.888 26.062 261.568 25.79 260.992 25.79C260.064 25.79 258.944 26.35 257.712 27.438C257.04 27.998 256.672 28.398 256.32 28.894L254.864 27.454C255.28 27.134 255.744 26.686 256.304 26.03C256.928 25.294 257.904 23.902 258.224 23.294C258.288 23.166 258.288 23.166 258.352 23.086C258.288 23.086 258.08 23.102 258.08 23.102C257.824 23.102 256.416 23.07 256.064 23.07C255.76 23.054 255.76 23.054 255.616 23.054C255.568 23.054 255.472 23.054 255.36 23.07ZM269.68 30.35L271.04 29.086C272.512 30.206 273.408 31.086 274.64 32.606L273.152 33.998C271.984 32.414 271.072 31.454 269.68 30.35ZM289.04 22.254V21.198C289.04 20.414 289.008 19.966 288.944 19.534H290.912C290.848 19.934 290.816 20.398 290.816 21.182V22.254H294.416V21.214C294.416 20.382 294.4 19.966 294.32 19.55H296.288C296.224 20.03 296.192 20.462 296.192 21.23V22.254H297.504C298.24 22.254 298.832 22.222 299.312 22.158V24.062C298.832 24.014 298.288 23.982 297.504 23.982H296.192V27.342H297.824C298.672 27.342 299.44 27.31 299.904 27.23V29.182C299.392 29.102 298.656 29.07 297.84 29.07H287.472C286.656 29.07 285.936 29.102 285.424 29.182V27.23C285.92 27.31 286.64 27.342 287.472 27.342H289.04V23.982H287.856C287.088 23.982 286.56 24.014 286.096 24.062V22.158C286.624 22.222 287.136 22.254 287.856 22.254H289.04ZM290.816 27.342H294.416V23.982H290.816V27.342ZM289.92 29.39L291.44 30.334C290.608 31.358 290.016 31.918 288.992 32.67C288.224 33.23 287.648 33.566 286.656 34.03C286.256 33.406 285.936 33.022 285.44 32.542C286.56 32.11 287.232 31.758 288.064 31.182C288.912 30.59 289.312 30.206 289.92 29.39ZM293.808 30.382L295.28 29.374C296.064 30.286 296.576 30.734 297.488 31.31C298.24 31.79 298.816 32.062 299.952 32.526C299.472 33.006 299.152 33.422 298.768 34.094C297.456 33.454 296.848 33.086 295.952 32.382C295.04 31.678 294.576 31.262 293.808 30.382ZM304.384 33.134L302.448 33.246C302.432 32.958 302.416 32.862 302.368 32.494C302.064 30.558 301.952 29.326 301.952 27.71C301.952 25.646 302.144 23.822 302.608 21.454C302.784 20.558 302.816 20.398 302.848 19.966L304.96 20.19C304.576 21.134 304.208 22.926 303.952 24.974C303.792 26.174 303.728 27.118 303.712 28.51C303.712 28.862 303.696 28.99 303.68 29.39C303.856 28.83 303.888 28.718 304.512 27.278L305.792 27.854C304.912 29.71 304.368 31.566 304.368 32.702C304.368 32.798 304.368 32.926 304.384 33.134ZM306.592 23.55L306.624 21.63C307.344 21.822 308.192 21.886 309.584 21.886C311.36 21.886 312.88 21.742 313.936 21.454L314.032 23.39C313.904 23.406 313.664 23.438 312.896 23.534C311.872 23.662 310.656 23.726 309.472 23.726C308.304 23.726 308.288 23.726 306.592 23.55ZM307.696 26.19L309.264 26.926C308.464 27.854 308.128 28.542 308.128 29.23C308.128 30.142 309.008 30.622 310.672 30.622C312.08 30.622 313.472 30.398 314.48 30.014L314.64 32.046C314.416 32.062 314.352 32.078 313.984 32.142C312.704 32.35 311.728 32.446 310.672 32.446C308.688 32.446 307.408 31.998 306.704 31.054C306.4 30.654 306.224 30.062 306.224 29.486C306.224 28.446 306.704 27.374 307.696 26.19ZM317.216 25.23L316.752 22.958C317.296 22.91 317.552 22.878 318.624 22.638C322.272 21.854 323.136 21.726 324.992 21.726C328.16 21.726 330.224 23.502 330.224 26.222C330.224 28.398 328.944 30.238 326.672 31.342C325.216 32.062 323.968 32.35 321.04 32.67C320.832 31.806 320.688 31.47 320.224 30.606C322.784 30.494 324.128 30.254 325.488 29.662C326.64 29.15 327.584 28.238 327.904 27.294C328.016 26.974 328.08 26.574 328.08 26.158C328.08 25.278 327.632 24.51 326.864 24.078C326.352 23.79 325.68 23.646 324.8 23.646C323.136 23.646 321.072 24.014 318.496 24.782C317.68 25.022 317.552 25.054 317.216 25.23ZM341.04 19.47L342.88 20.878C342.608 21.07 342.304 21.342 340.912 22.638C340.096 23.39 338.976 24.286 337.104 25.71C336.608 26.078 336.496 26.206 336.496 26.382C336.496 26.622 336.528 26.654 337.936 27.71C340.432 29.598 340.896 29.998 342.976 31.886C343.136 32.046 343.232 32.126 343.44 32.286L341.792 33.95C341.376 33.374 340.8 32.766 339.712 31.758C338.576 30.702 338.048 30.27 335.584 28.35C334.528 27.534 334.24 27.102 334.24 26.366C334.24 25.886 334.416 25.454 334.768 25.07C334.976 24.846 334.992 24.83 336.176 23.918C337.904 22.606 338.8 21.838 339.872 20.798C340.592 20.078 340.768 19.87 341.04 19.47ZM352.54 26.11L352.572 26.142C354.028 25.566 354.732 25.406 355.932 25.406C358.668 25.406 360.428 26.814 360.428 29.006C360.428 30.526 359.676 31.742 358.252 32.542C357.212 33.134 355.852 33.454 354.38 33.454C353.036 33.454 351.916 33.198 351.276 32.718C350.668 32.27 350.316 31.598 350.316 30.878C350.316 29.55 351.468 28.59 353.068 28.59C354.188 28.59 355.164 29.054 355.836 29.902C356.156 30.302 356.332 30.654 356.572 31.342C357.9 30.846 358.476 30.158 358.476 29.022C358.476 27.774 357.244 26.958 355.308 26.958C352.972 26.958 350.636 27.902 348.716 29.646L347.628 27.918C348.188 27.646 348.828 27.214 349.884 26.414C351.372 25.278 353.452 23.486 354.668 22.254C354.7 22.222 354.86 22.062 354.956 21.966L354.94 21.95C354.332 22.03 353.308 22.094 350.412 22.222C350.06 22.238 349.948 22.254 349.644 22.302L349.564 20.382C350.108 20.446 350.572 20.478 351.452 20.478C352.812 20.478 354.764 20.398 356.316 20.286C356.876 20.238 357.052 20.206 357.308 20.078L358.3 21.486C358.028 21.63 357.916 21.726 357.468 22.142C356.668 22.878 355.5 23.918 354.956 24.382C354.668 24.622 353.516 25.486 353.196 25.694C352.796 25.966 352.796 25.966 352.54 26.11ZM354.844 31.806C354.556 30.702 353.948 30.126 353.052 30.126C352.476 30.126 352.108 30.414 352.108 30.862C352.108 31.502 352.828 31.87 354.012 31.87C354.316 31.87 354.396 31.87 354.844 31.806ZM365.116 28.59C366.62 28.59 367.82 29.806 367.82 31.294C367.82 32.798 366.604 34.014 365.116 34.014C363.628 34.014 362.412 32.798 362.412 31.294C362.412 29.806 363.628 28.59 365.116 28.59ZM365.116 29.838C364.316 29.838 363.66 30.494 363.66 31.294C363.66 32.11 364.316 32.766 365.116 32.766C365.916 32.766 366.572 32.11 366.572 31.294C366.572 30.494 365.916 29.838 365.116 29.838Z" fill="#182998"/>
<g clip-path="url(#clip0_6008_7385)">
<path d="M113.023 2.76562H95.6883L93.4747 27.3488L78.6469 2.76562H65.5791L61.6055 47.1933H74.7799L76.9401 22.7934L91.7146 47.1933H104.916L108.436 7.50422L113.023 6.69264V2.76562Z" fill="#0C3388"/>
<path d="M58.7794 47.1909H51.6055L52.2455 40.1484H59.3928L58.7794 47.1909Z" fill="#F08300"/>
<path d="M114.994 47.1909H107.82L108.46 40.1484H115.608L114.994 47.1909Z" fill="#F08300"/>
<path d="M150.198 21.2217C147.665 19.8865 143.398 18.5775 137.424 17.2947C134.997 16.7973 133.477 16.2475 132.89 15.6453C132.25 15.0694 131.984 14.441 132.037 13.7342C132.117 12.7655 132.597 11.9539 133.504 11.2732C134.384 10.5926 135.637 10.2522 137.264 10.2522C139.237 10.2522 140.758 10.6973 141.798 11.6136C142.838 12.5299 143.451 13.9698 143.611 15.9857H158.786V12.0848L156.199 11.7707C155.479 9.30974 154.465 6.79645 152.332 5.12092C149.558 2.92179 145.158 1.95312 139.371 1.95312C134.65 1.95312 130.89 2.52909 128.09 3.70719C125.29 4.85912 123.103 6.45611 121.583 8.49815C120.063 10.5402 119.182 12.687 118.996 14.9646C118.676 18.4466 119.743 21.3002 122.196 23.5517C124.623 25.8032 128.837 27.5835 134.837 28.9448C138.517 29.7564 140.811 30.6204 141.771 31.5105C142.731 32.4268 143.131 33.4478 143.051 34.5997C142.944 35.804 142.304 36.8774 141.158 37.7937C139.984 38.71 138.411 39.1813 136.411 39.1813C133.744 39.1813 131.743 38.2911 130.463 36.4847C129.69 35.3851 129.237 33.762 129.13 31.6414H115.742C115.742 36.1182 116.569 40.0714 119.796 43.5533C122.943 46.9568 127.69 47.9254 135.397 47.9254C139.771 47.9254 143.478 47.2971 146.465 46.0666C149.452 44.8362 151.852 43.0036 153.692 40.595C155.505 38.1864 156.546 35.5684 156.812 32.7148C157.026 30.28 156.626 28.1071 155.585 26.1436C154.545 24.18 152.785 22.5307 150.252 21.2217" fill="#0C3388"/>
<path d="M78.8865 22.7934C78.8865 22.7934 61.285 20.2016 42.1901 23.0552L37.6298 7.50422L42.1901 6.71882V2.76562H20.9884L0 47.1933H14.2945C14.2945 47.1933 19.7616 40.465 31.7626 34.077L34.6428 47.1933H49.284L43.8703 28.7625C53.151 25.49 64.752 23.029 78.8865 22.7934ZM29.9491 25.6732C27.1222 26.4848 24.3487 27.4797 21.6551 28.6316L27.3889 14.2587L29.9491 25.6732Z" fill="#0C3388"/>
</g>
<defs>
<clipPath id="clip0_6008_7385">
<rect width="160" height="47.2" fill="white" transform="translate(0 0.75)"/>
</clipPath>
</defs>
</svg>
